<?xml version="1.0"?><svg version="1.2" baseProfile="tiny-ps" viewBox="0 0 300 300" xmlns="http://www.w3.org/2000/svg" xmlns:xlink="http://www.w3.org/1999/xlink"><title>MewingMarket</title><g><g fill="#f7f5f0" transform="matrix(.1 0 0 -.1 0 300)"><path d="M0 1500V0h3000v3000H0V1500z"/></g><g fill="#dbd6d0" transform="matrix(.1 0 0 -.1 0 300)"><path d="M0 2960v-40h14c8 0 18-5 22-11l7-11-22 7-21 6 2-293 3-293 23-3c29-4 28-18-5-47l-28-23 17-19 16-18-14-19-14-20v-79l7 7c4 4 6 22 5 41l-3 33 18-3c10-2 22-4 27-4l8-1-6-16-6-16 19 5 19 5 10-92 9-91 3 60c1 33 3 71 3 85l2 25 18 3 17 3v-15c0-19 5-20 31-5l20 10-6 10-6 9 15 6c9 3 16 12 16 19s6 16 12 18l13 5-32 1-33 1v13c0 7 6 25 12 39l13 27 17 4 17 5-6 22-6 22 14 9 14 9h-45l12 20 13 20 4-12c2-7 9-16 16-20l11-7-4-36-4-36-27-14c-14-8-22-14-17-15 6 0 1-7-10-15l-19-14 32-1h32l6-10c3-5 8-50 10-101 8-160 20-117 15 52l-2 76 21 6c12 3 21 10 21 16v11h-31l6 20 6 20h-21v85l26 1 26 2-7-25-6-25 11 7 10 6v-23c0-13-5-29-11-35l-11-11 25-27 24-27 11 30c12 35 10 61-5 70l-11 7 13 18 13 19 24-2c13-1 31-2 41-1l17 1v35l-8-13-9-13-17 7-17 6 22 16 21 15 9-14c5-8 9-20 9-26v-13h30v-15c0-7-8-18-17-24l-18-10 18-13 19-14-16-13-16-13 6-9c3-5 12-9 20-9h14v71l-10-6c-16-10-12 5 6 23l16 16-4-77-3-77 14 3 14 2 4-15 5-15-10 13-9 13-13-16-12-15h42l1-17c6-73 7-92 8-118l1-30 10 15c5 8 10 32 10 52v36l12 5 13 5-12 1-13 1v91l41-4 41-4 9-14 9-14 11 18 11 18 13-11 13-11 7 11 6 10h37c20 0 44 5 52 10l15 10h-60l35 33c19 18 43 36 53 40l18 7-6 10c-3 5-13 10-21 10s-14 5-14 10v10h58l4 36 4 36-20 7-19 8 12 8 13 7 23-12 23-13-5-16-5-16 10 15 11 14 41-1 41-2-4 12-4 12-22-2-22-3 7 11 6 11 19-5 19-5 6 9c3 5 20 9 37 10 18 0 41 4 52 9l20 9-30 2c-16 1-43 1-58 0l-29-3 23 31 23 31 25 1c14 1 32 1 39 0l12-2v27l-27 1c-16 0-38 1-51 2l-23 1 15 15 15 15h51v-9c0-5 12-11 26-14l25-5 30 25 30 25-7 22c-9 30-11 31-31 15l-18-14 14 18c17 21 35 22 55 1 9-8 16-11 16-7v9l35 1 35 1v-13c0-8 5-17 11-20l10-7 18 16c10 9 23 16 29 16 7 0 12 5 12 10 0 6-7 10-15 10s-15 5-15 10c0 14 13 13 29-2l14-13 4 13c3 6 11 12 19 12s24 10 36 22 31 23 42 24c29 3 29 3 45 13l13 8-11 22-12 21h13c7 0 23-3 36-6l22-6v-26l38-7c20-4 51-13 67-20 17-8 53-16 80-18 28-2-32-4-132-5l-183-2v-20l268-2 267-1-42-6-42-6 9-15c5-8 10-21 10-27v-13h-29l4 20 4 20h-13c-16 0-36-20-36-37v-12l18 6 17 5-23-17-23-17 11-13 10-12-31-7c-39-7-49-1-49 30v24h-20v-57c0-5 30-11 67-15 37-5 78-13 91-20l23-12 19 12c11 7 27 12 35 12h15v-40h38l6-24 6-24 27-5 28-6 11 14 11 15 1-31c0-17 3-34 6-37s-1-14-11-24l-16-18h11c7 0 12-6 12-13v-14l-25-11c-14-6-25-16-25-21 0-14 45-61 59-61 6 0 14-7 17-15l6-16 19 6 19 6v-26h70v16l9-5c5-4 16-3 25 0l16 6v38h38l-1-12c0-7 1-21 1-30l2-18h30l1 18c1 9 5-3 10-27s6-48 3-52l-5-9h16c9 0 23-6 31-14l14-15-10-6c-15-9-12-25 4-25h14l7-65c4-36 5-69 1-72-3-3-1-12 5-20l11-13h-17l11-8c6-4 18-33 26-64l17-58h-23c-46 0-92-46-101-102l-7-38 15-30 15-30-5-20-5-20h-49l6-10 6-10-8 1c-4 1-14 1-22 0l-13-1 5-14 6-14-18-16c-10-9-23-16-29-16h-12v-30h-45l15-10 15-10h-25l-1-22-1-23-5 18c-5 18-23 24-23 7 0-5-6-10-14-10-16 0-46-42-46-65v-16l-9 5-9 6-6-30-5-30h-46l-15-22c-8-13-18-33-21-45l-7-22 14 6 14 5v-42h-20c-11 0-20-4-20-8 0-5-11-22-25-38l-24-28 10-7 11-6-31-6-31-6v-16c0-8-4-15-10-15-5 0-10-7-10-15 0-18-11-19-29-2l-13 12 12-25 12-25-13 13c-7 6-21 12-32 12h-18l5-9 6-9-16-6c-22-9-24-8-18 9l6 15h-22v-15c0-8-4-15-9-15s-12-11-15-25l-6-25h-30v15c0 8-4 15-9 15s-14-7-21-15l-12-15h12c8 0 11-3 8-6-4-3-15-1-27 5l-20 11-6-10c-3-5-14-10-23-10h-17l13 8 13 9-7 17-7 18-19-5-19-5 6 19 6 19h-22l6 21 7 22-11-7-11-7v8c0 5 5 14 12 21l12 12h-11c-7 0-15-5-18-10-3-6-10-10-15-10h-9l5 15c4 8 12 15 19 15 8 0 16 4 19 8l5 9-17 2c-9 1-35 2-57 1h-40l15 10 15 10h-35v10c0 6 7 10 16 10h15l-3 22c-2 12-9 23-15 26l-13 4v-31l-21-6c-26-8-29-5-34 35s-2 38-50 42l-40 3-3-22c-3-22-22-33-22-13 0 6-7 10-15 10h-15v28l-27 7c-16 4-52 9-82 11s-56 6-59 9-11 0-18-6l-14-11-15 6-15 5v-19h-59l-6-10c-4-6-12-10-18-9-16 2-77-24-77-32 0-4-15-11-32-14-18-4-46-14-62-22l-30-15-18 11-18 11-18-8-17-9-62 4-63 5v-9c0-6-7-10-15-10h-15v67h-19l-3-38-4-37-10 35-10 35-22-3-22-3v21h-61l6 9 5 10-54 12-54 12-26 23c-14 13-30 24-36 24h-10v18l-1 17-14-25-14-25-2 80c-1 44-4 70-6 59-2-12-12-29-22-38l-18-17-25 10-25 9-7 18-7 18-9-14-10-15-1 20c-1 11-1 23 0 28 0 4-8 7-20 7h-21l5 14 6 15-15 11-14 12v-23l-14 13c-8 7-12 16-9 21l4 7H51c-10 0-26 3-35 6l-16 6V0h569l4 33 4 32 1-32 2-33h2420v3000H0v-40zm1725-150 6-10h-42l6 10c3 6 10 10 15 10s12-4 15-10zm-148-22-5-13-1 19c-1 11 2 17 5 13 3-3 4-12 1-19zm-77-38c0-5-7-10-15-10s-15 5-15 10c0 6 7 10 15 10s15-4 15-10zm537-6c-3-3-12-4-19-1l-13 5 19 1c11 1 17-2 13-5zm-727-34 15-10h-45v10c0 13 11 13 30 0zm727-90-5-20h33l-14-9-15-10-29 4c-38 5-48 15-14 15h27v40h22l-5-20zm158-130c-3-5-11-10-16-10h-10l6 10c3 6 11 10 16 10h10l-6-10zm-1885-35c0-8-4-15-9-15-13 0-22 16-14 24 11 11 23 6 23-9zm155 5c-3-5-15-15-26-20l-19-11v11c0 6 10 15 23 20 29 12 29 12 22 0zm1780 0 6-10h-10c-6 0-11 5-11 10 0 6 2 10 4 10 3 0 8-4 11-10zm-1844-43-12-12 7 18c3 10 9 15 12 12s0-11-7-18zm129 7v-15l-10 6-10 6 5 10c9 14 15 11 15-7zm-330-34c0-13-11-13-30 0l-15 10h45v-10zm-20-29c0-5-7-11-14-14l-15-6 6 15c6 15 23 19 23 5zm2311-24c-13-13-26-3-16 12l6 11 11-6 10-6-11-11zm-1-27c0-5-2-10-4-10-3 0-8 5-11 10l-6 10h10c6 0 11-4 11-10zm-2300-14c0-3-4-8-10-11l-10-6v10c0 6 5 11 10 11 6 0 10-2 10-4zm-124-53c-7-7-26 7-26 19v10l15-12c9-7 13-15 11-17zm2552-535c-3-7-14-14-26-16l-22-3v9c0 14 12 22 33 22h19l-4-12zm102 2c0-5-4-10-10-10-5 0-10 5-10 10 0 6 5 10 10 10 6 0 10-4 10-10zm-94-86-28-16-16 16-16 16h44l45-1-29-15zM130 1370c0-11-2-20-4-20s-6 9-9 20l-5 20h9c5 0 9-9 9-20zm2085-159-5-10 17-11 18-12-18 6c-10 3-21 6-23 6s-4 7-4 15 5 15 11 15h10l-6-9zm-662-125c9-7 17-16 17-19 0-10-44-3-52 8-20 26 4 34 35 11zm292-226c-10-11-20-18-23-15-7 6 18 35 31 35h10l-18-20zm10-70 6-10h-10c-6 0-11 5-11 10 0 6 2 10 4 10 3 0 8-4 11-10zm-45-40c0-5-2-10-4-10-3 0-8 5-11 10l-6 10h10c6 0 11-4 11-10zM556 582l-5-9-79 4-80 3-5-20-5-20h8c5 0 15-3 24-6l16-6v32h150V451l-15 5c-8 4-15 10-15 15s-5 9-11 9h-11l5-14 6-15-15 6-14 5v-10c0-5 9-20 19-33l20-24 15 20 14 20 2-180c0-98-1-177-4-174-3 2-6 32-7 67l-2 62h-8c-13 0-29-36-30-67l-1-28-10 48-10 47h-56l-20 26-19 27-19-11-19-11 23-1h22v-41l10 6 10 6-7-16-6-17-30 6c-16 3-38 6-48 6h-19v118l-12 5-13 5 20 16 20 15-12 1c-19 0-16 20 3 20h15l-14 14-14 15 2 58 3 58-9 6-10 6 7 16 6 17h58v30h181l-5-8zm6-72v-25l5 13c2 6 2 18 0 25l-5 12v-25zm-157-10c11-5 26-9 33-9l13-1-6 10-6 10-27-1h-27l20-9zm105-6v-16l12 4c6 2 14 10 16 16l4 12h-32v-16zm-36-70c3-8 6-18 6-20 0-3 5-2 10 1 15 9 12 22-6 29l-16 6 6-16zm81-54c3-5 8-10 11-10 2 0 4 5 4 10 0 6-5 10-11 10h-10l6-10zm-45-50c0-5 5-10 11-10h10l-6 10c-3 6-8 10-11 10-2 0-4-4-4-10zm40 0c0-5 5-10 10-10 6 0 10 5 10 10 0 6-4 10-10 10-5 0-10-4-10-10zm1284 2370c0-24 11-26 20-4 8 22 8 24-7 24h-13v-20zm-616-107c6-2 18-2 25 0l12 5h-50l13-5zm707-44c4-5 15-9 25-9h19l4-17 5-18 1 26 1 26-30 1-30 1 5-10zm-816-22 11-11 10 10 10 10-22 1-21 2 12-12zm861-42c0-8 5-15 10-15 6 0 10 7 10 15s-4 15-10 15c-5 0-10-7-10-15zm-830-14c0-6 5-13 10-16l10-6v15c0 9-4 16-10 16-5 0-10-4-10-9zm40-11c0-6 7-10 15-10s15 2 15 4-7 6-15 10l-15 5v-9zm977-31-5-20 11 4c7 2 13 11 15 20l3 17h-9c-5 0-12-9-15-21zm-1170-6c-9-8-7-79 3-118l8-30 1 78c1 77 0 83-12 70zM0 2300c0-5 5-10 10-10 6 0 10 5 10 10 0 6-4 10-10 10-5 0-10-4-10-10zm1180-91v-10l10 6c6 3 10 8 10 11 0 2-4 4-10 4-5 0-10-5-10-11zm-570-34-12-15h10c12 0 26 19 19 26-2 2-10-2-17-11zm85-15c3-5 8-10 11-10 2 0 4 5 4 10 0 6-5 10-11 10h-10l6-10zm1580-312c-3-8-4-77-3-153l3-140h60l3 30c2 17 7 34 12 39l8 8 27-41 28-41h77v8c0 4-18 31-40 61-22 29-40 56-40 60s16 22 35 41 35 38 35 42v8h-79l-28-35-28-35-5 77-5 78-28 3-27 3-5-13zM0 1699v-150l33 3 32 3-3 78c-1 42-1 77 2 77 2 0 14-34 27-75l22-75 23-6c13-4 30-4 38-1l14 6 22 68c12 37 26 72 31 77l8 9-6-56c-3-30-3-67 1-81l6-26h61l-3 148-3 147-36 3-36 3-10-13c-6-7-23-51-38-96l-27-84-8 9c-5 4-18 42-30 83s-27 81-32 88l-10 12H0v-151zm922 124 3-28h60l3 28 3 27h-72l3-27zm818 18-14-10-31-98-31-98-23 85c-14 47-28 93-33 103l-9 17h-89v-281l16-6 17-6 16 10 16 11-2 76c-1 42 0 76 2 76 3 0 14-31 25-69 12-38 27-77 34-86l13-18 25 6 26 7 23 75c12 41 25 75 28 75s6-35 6-77v-78h60v290l-30 3-30 2-15-9zm-1328-76-33-14-15-38-16-37 6-36 5-35 31-27 30-28h38c20 0 47 3 60 6l22 6v29c0 16-1 29-3 29-1 0-17-4-36-10l-34-9-18 10c-11 5-19 14-19 19v9l63 3 62 3 3 22 3 22-16 31-16 32-34 14c-41 17-42 17-83-1zm76-62 4-13h-62v8c0 25 50 28 58 5zm657 69c-11-2-25-8-32-14l-11-9-7 11c-3 5-17 10-31 10h-24v-211l16-6 17-6 16 10 16 10 3 66 3 67 17 9 18 10 12-7 11-8 3-74 3-75h60l3 84 3 84-21 22c-24 26-45 33-75 27zm180-4c-11-6-26-18-32-26l-13-16v-62l12-12 11-11-13-15-12-16 6-15 5-15-16-29-17-29 17-25 16-25 40-7 39-6 37 10c21 5 46 18 56 27l19 17v27c0 14-6 34-13 44l-12 17-50 7-50 8 30 8c17 4 38 15 48 23l17 16v67h14c8 0 17 7 20 15l6 16-13 4c-6 2-39 6-72 9l-60 5-20-11zm60-59 7-21-11-11-11-11-15 15-16 15 7 17c3 9 12 17 19 17h14l6-21zm23-176-3-18h-70l-3 18-3 17h82l-3-17zm787 231-30-15-3 10-4 11h-59l3-107 3-108 31-3 32-3 4 71 4 71 14 9c8 6 25 10 38 10h23l-3 32-3 31-10 4c-5 1-23-4-40-13zm-1630-11c3-10 16-54 27-98 12-44 26-86 31-92l9-13h23c29 0 41 15 55 73 14 55 25 60 33 15 3-18 10-46 16-61l11-28 32 3 33 3 11 35c7 19 21 68 32 108l20 72h-67l-11-42c-6-24-14-50-17-58l-6-15-14 58-15 57h-76l-12-50-12-50h-9c-5 0-9 6-9 13 0 6-5 29-11 50l-10 37h-71l7-17zm355-88v-105l24-6 25-6 10 7 11 6v209h-70v-105zm978 95-16-10 5-20 6-21 43 7 44 6v-10c0-11-12-16-68-27l-32-7-10-18c-6-10-10-29-10-42v-24l20-22 21-22h25c14 0 34 5 44 10l20 10 18-11 19-12 17 6 16 6v162l-25 24-24 25h-48c-26 0-55-5-65-10zm92-116c0-3-5-14-10-25-18-33-59-18-46 16l5 15h26c14 0 25-3 25-6zm417-143-5-21h8c14 0 19 15 11 29l-8 13-6-21zm-695-473c5-15 28-18 29-3 0 6-7 12-17 13l-16 4 4-14zm33-98-6-10h10c6 0 11 5 11 10 0 6-2 10-4 10-3 0-8-4-11-10z"/></g><g fill="#b7adab" transform="matrix(.1 0 0 -.1 0 300)"><path d="M53 2988c2-7 7-23 11-36l7-22-15-6-16-6v-29l-20 6-20 6v-51h24l-12-12-12-12v-124l13-5 12-5-12-1-13-1v-317l20-18 20-18v21c0 26 7 27 31 6l18-16-6-14-5-14h22v-20c0-11 4-20 8-20h9l-1 48-1 47-21-1H72l5 13 6 14 16-7c9-3 24-9 34-11l17-5 1 18c1 11 1 24 0 29l-1 11 38 14c20 8 41 17 46 19l9 4-7-12-7-11 25 12c14 6 26 15 26 20 0 4 5 8 11 8h10l-6-10-6-10 33-1c18 0 61-1 96-1h63l-12-14c-6-8-10-14-8-15 2 0 15-2 29-3l25-3 8 11 8 11-2-40c0-22-1-75 0-117l1-78h28l6-22c3-13 6-38 6-55v-33h20v108l18 4c9 3 43 2 75-2l58-6 5 8 5 8 22-5 22-6 25 10 25 10-30 1-30 1 18 13 18 14 2 21c1 22 17 30 17 9v-12l13 16c6 9 19 18 27 21l15 5-15 1-15 1-12 25-11 25h9c5 0 9-4 9-10v-10h50v60l-17 1h-18l20 9 20 9h-35l-34 1 9 9c6 6 30 13 54 17l44 7-6-10-7-11 22-5c12-4 24-4 27-2 2 3-2 5-10 5h-14l29 15c15 8 35 15 42 15 8 0 14 5 14 10v10h-42l6 15 5 15h-20l7 11 7 11 6-9c3-5 15-9 27-9h21l11 24 11 24-24-6-25-6v32l-14-5-14-6-4 24-5 24 28-6 29-5v21l-14-5-15-6-17 27-17 26 7 6 6 6v-11c0-7 5-12 10-12h10v40h30v25l8-10 7-10 55 6 55 6-53 1-53 2 5 9c4 5 2 20-3 33l-8 23-21-33-20-34-6 11-7 11 7 11 7 11-23-7-23-7 7 10 6 10-15 12-15 12 1 42 1 41 8-30c4-16 8-24 9-17l1 12h28l6 17 7 17-17 13c-10 7-24 13-31 13h-13v50h15c20 0 19 16-1 24-9 3-209 6-445 6H110v-24l-12 12c-7 7-21 12-31 12H48l5-12zm33-82c20-21 17-28-6-14-11 7-20 16-20 20 0 12 10 9 26-6zm-3-267 5-20-14 12c-16 13-19 29-5 29 5 0 11-9 14-21zm-34-13 12-14-11-7-10-6v15c0 8-6 17-12 19l-13 5 11 1c6 1 17-5 23-13zm31-46c0-5-7-10-15-10s-15 5-15 10c0 6 7 10 15 10s15-4 15-10zm363-97c-13-2-33-2-45 0l-23 4h90l-22-4zm412-83c-3-5-11-10-16-10h-10l6 10c3 6 11 10 16 10h10l-6-10zm-232-157c-7-2-19-2-25 0l-13 5h50l-12-5zm490 750-13-5v-39l16-6 16-6 15 16 16 15-6 16c-6 16-21 19-44 9zm1147-28v-35h-67c-81 0-80-7 2-11l60-4 5-40c3-22 3-59 2-82l-4-41-21-6c-12-3-161-5-331-6-171 0-312-3-315-5-2-3 104-6 237-6 133-1 247-3 252-4 6-1 37-3 71-4l60-1-6-10-6-10h23l-13-17-14-17 12 7 11 7 4-9c1-5 12-11 24-13l21-3-1 10c-1 6-5 9-9 7l-8-2 6 9 6 10 14-6 15-5 1 13v14l10-23 9-24-15-14c-8-9-15-12-15-7v8l-33 2c-17 0-26-1-19-4l12-5-5-9-6-9 17 7 17 6-6-10-7-11 16-12 15-13 8 9c5 5 11 18 14 29l5 20 1-26 1-26h30v67h20v-24c0-25 28-86 45-98l10-8h-25v-42l15 12 15 12v-11c0-6 5-11 10-11 6 0 10 6 10 14v14l21 5c12 3 18 3 15 0-3-4-1-13 6-20l12-15-15-9-14-9h37l-2-37c-1-21-1-47 0-58l1-20 10 23 9 24 32-7c41-9 46-14 28-25l-15-10h43l7-30 7-30h20l-17-26-17-26 7-6 6-6 7 11 7 11 19-14 20-14h-44l1-17c0-10 5-27 10-38l9-20-4 29-4 28 23-28 23-29-11-7-12-8h20c11 0 27-6 36-13l16-12-11-11-12-11-21 3-22 4-7-12-7-11 39 5c21 4 47 9 57 13l17 7v-71l16-9 17-9-17-33-16-33 11-13 10-13 15 6 14 5v-14c0-8-5-19-11-25l-10-10 17-17 17-17-11-11-10-10 8-29 9-29h-19v49l-12 7-12 8-10-19c-6-11-23-32-38-48-31-32-35-47-13-47h15v-126l15-21 15-22 43-4 42-3-32-8-33-8v-13c0-7-7-15-15-19l-15-5 6-14 5-14h-31l16 25 16 24-14-4c-7-3-17-17-23-32l-9-27 9-7c6-4 11-21 11-39l2-32-14 6-14 5v-22h31l-6-10c-3-5-12-10-18-10h-13l-1 22c-1 12 2 27 7 33l9 11-27-1-27-1 3-12 2-13-19 11-20 10-6-10-6-10 15-15c8-8 19-15 24-15 6 0 13-7 16-16 8-21 8-24-4-24-5 0-10 6-10 14s-6 16-12 18c-20 8-38-2-38-19v-15l-27 6-28 7 15-11 15-10h-45v37l-30 1-30 1 5-9c3-5 0-12-6-16l-11-6 13-8 13-8-13-16-13-16h11c6 0 11 4 11 9s11 11 25 13l25 5v-29l15 6c8 3 23 9 33 13l17 7-14-18-15-18-29 5-30 4 18-14 19-13-20-1c-10-1-34-3-51-5l-33-4v24l-12-12-12-12-31-1h-30l20-9 20-8h-61c-64 1-84-5-84-25v-11l12 12c7 7 19 12 28 12l15-1-18-13-18-14 20-7 21-6-18-24-17-24-27-1h-28v-21l28 3 27 3-2-13-3-12 35 6 35 5v-21h-40v-32l15 5 14 6 7-11 7-11-11 7-12 7v-20l-15 5-15 6v-22h42l-23-20-24-19 18-1h17v-14c0-8-3-21-6-30l-6-16-9 6c-5 3-9 10-9 15v10l10-6 10-6v21h-59l-6 10c-3 5-12 10-18 10h-12l15-10 15-10h-75l-1 28-1 27-7-30c-3-16-10-29-14-27-4 1-11 2-17 2h-10l-1 23v22l-11-22c-12-25-28-30-28-9v13l-22-1-21-1-13-40c-6-22-12-35-13-29-1 15-27 25-45 18l-15-6 6-14 5-14h-15c-9 0-23-3-33-7l-17-6 7 11 7 12-14 15-15 14-12-14-12-15h23l-5-9-6-9 12-5 13-4-7-8c-4-4-21-8-38-7l-30 1 14-32 13-32 12 3 11 2v-22l-15 5-14 6-6-9-5-8 27-11 28-11-25 6c-14 3-32 6-40 6-8 1-18 6-22 12l-8 11v-18c0-10-7-29-16-42l-16-24-14 6c-18 7-18 23 0 23h15l7 22 7 22-23 18-22 18h-73l-2 31-2 32 19-18 20-18v32l13-5 14-5v32l-17-4-17-4 5 23 4 24h-32v22l-15-12-15-13-7 7-6 6 18 21 19 20-13 8-14 9 7 11 7 11h-15c-20 0-20 14-1 30l15 12-6 9-5 9-21-20c-12-11-27-20-32-19l-11 1 13 5c6 2 12 9 12 13v9l-49-2-49-2 9-11 9-11-6-17-6-16-24-6c-13-3-29-4-36-1l-13 5 23 1 23 1-6 10c-3 5-27 12-53 16l-48 6-10 22-9 21-20 3-20 3-23-21-22-21v20c0 11-4 23-10 26l-10 6v-60l-12-7-11-7 6 16 6 16-8 6-9 5-12-16-13-15-15 6-15 5-16-14c-9-8-23-16-31-18l-15-3-6-25-7-25-1 33-1 32h-20l-1-47-1-48-5 18-5 18-15-5c-8-3-17-6-19-6s-4-9-4-21v-20l-16 15c-22 23-32 20-36-12l-4-27-11 35-11 35-2-35c-1-19-2-38-1-42 0-5-4-8-10-8h-11l6 16 6 16-24-6c-13-3-32-9-43-13l-18-7 29 27c16 15 25 27 21 27-5 0-17-7-27-17l-18-16v24l-20-6-20-6-6 15-6 16h-15c-8 0-21-7-30-15l-15-16 11-13 12-14-11-7c-21-13-30 22-15 60l8 20-20-18-21-18-6 16c-9 23-8 25 8 19l13-5 17 25 16 26h-9c-5 0-12-4-15-9s-17-11-31-13l-25-5v16l-12-4c-7-3-20-1-28 5l-14 9-1 35-2 36h8c4 0 10-8 12-18l5-17 1 18 1 19-20 25-20 26V950h-15l-3 77c-1 42-5 79-7 82-9 9-15-6-18-51l-4-45-16-23c-8-12-27-28-41-35l-26-14v16l-28-3-27-3 18 13c22 17 22 26-3 26h-20l2-12 3-12-27-2-28-3-2 22c0 12-2 27-2 34-1 7-10 19-21 27l-20 15-23-6-22-5v93c0 106-9 116-12 13l-3-69-28 2-27 2 6-10 6-10-11-13-11-13 6-19 7-19-13 12-12 11-16-5-15-6 7 12 8 12-18 14-19 14 16 1h17l6 16c9 23 8 26-6 18l-11-7 6 16 6 17h-8c-4 0-13 15-19 33l-10 32-1-25c-1-14-6-32-11-40l-10-15-1 25-1 25-13-30-13-30-38-5-39-5-3-547L0 0h520v140h-24c-14 0-28 5-31 10-3 6-13 10-20 10h-14l5-15 6-15h-18v-27l1-26-12-4-11-4 5 20 5 21h-32l-1 13v12l-8-19-8-20-11 32c-13 39-25 43-16 6l7-27-12 7-11 7v-10c0-6 5-11 10-11h10V81c0-10-6-24-14-30l-13-11-7 122c-4 68-6 185-5 261l1 137h9c5 0 9 9 9 20v20h31l-6-22-7-21 17 6c9 4 18 7 21 7 2 0 1 7-3 15l-5 16 92-3 93-3 4-12 4-11-23-5-23-4 33-2 32-1V447l-35 6-35 6v-7c0-4 7-16 16-27l14-20 20 13 20 12 2-127c1-71 2-147 3-171 1-23-1-45-4-47-4-2-5-22-3-44l4-41h2418v3000h-740v-35zm76-60 12-12-9-14c-5-8-9-33-9-56v-43h-9c-5 0-16-3-25-6l-16-6v122l23 1 22 2-23 4-22 4 4 8c8 12 39 9 52-4zm20-62c-10-10-19 5-10 18l8 13 4-13c2-7 1-15-2-18zm39-3 6-10h-10c-5 0-18-3-28-7l-18-7 14 17c15 19 27 22 36 7zm462-57-5-18v60l5-12c2-7 2-21 0-30zm-477-8v-35h-45l11 8c6 4 14 19 18 35 9 37 16 34 16-8zm90-31c0-2-9-4-21-4h-20l6 10 6 9 14-6c8-3 15-7 15-9zm17-16-5-13-1 19c-1 11 2 17 5 13 3-3 4-12 1-19zm-102-38 6-10h-10c-6 0-11 5-11 10 0 6 2 10 4 10 3 0 8-4 11-10zm-58-67-5-18v70l5-17c2-10 2-26 0-35zm89 22 15-14-18-21c-10-11-21-20-26-20h-8l7 11 7 11-12 7-12 8 7 16c8 21 21 22 40 2zm84-52c0-10-4-24-9-32l-9-14-7 22-6 21 6 10c10 16 25 12 25-7zm55-1c6-4 12-17 12-29l2-22-25 21c-13 12-24 25-24 30 0 10 21 10 35 0zm42-49-5-18v60l5-12c2-7 2-21 0-30zm68-33-6-10h10c5 0 11 5 13 12l4 12 12-8c16-9 15-39 0-55l-13-13 25 7 24 8-15-24-16-24-34-2-33-3 12 12c18 18 15 28-8 28h-20v9c0 6 5 13 11 16l10 7-5 13c-6 16 2 25 21 25h14l-6-10zm-95-55v-13l-25 11c-32 15-32 26 0 19l25-4v-13zm225-325 6-10-15 6c-18 7-21 14-7 14 6 0 13-4 16-10zm162-275c-19-19-27-19-27-1v15l18 3c24 6 27 1 9-17zm-70-47-5-13-1 19c-1 11 2 17 5 13 3-3 4-12 1-19zm16-81c-7-11-23 2-23 19v15l14-13c8-7 12-16 9-21zm-46-43c-7-44-15-53-28-34l-11 15 5-27 4-28h-17v110h53l-6-36zm-27-300v-16l-15 12c-8 7-15 14-15 16s7 4 15 4h15v-16zm-30-14c0-5-2-10-4-10-3 0-8 5-11 10l-6 10h10c6 0 11-4 11-10zm-10-58c0-4-10-13-22-21l-23-14 19 22c20 22 26 25 26 13zm140-6c0-2-8-10-17-17l-18-14 14 18c13 16 21 21 21 13zm-45-16c-3-5-10-10-16-10-5 0-9 5-9 10 0 6 7 10 16 10h15l-6-10zm-45-14c0-2-7-7-16-10l-15-6 6 10c6 10 25 14 25 6zm-175-36c-3-5-12-10-18-10h-12l15 10c19 12 23 12 15 0zm-313-127-12-5 6-9 5-9h-9c-5 0-15 6-21 14l-12 14 23 4c26 4 40-2 20-9zM87 1055l-2-33-8 5-7 4 6 11 7 11-16-6-17-6v9c0 6 6 10 13 10 6 1-1 7-17 13l-30 13 37 1 36 1-2-33zm30 13-5-13-1 19c-1 11 2 17 5 13 3-3 4-12 1-19zm1428-118 6-10h-15c-9 0-16 5-16 10 0 6 4 10 9 10 6 0 13-4 16-10zm-1135-4c0-2-9-6-20-9l-20-5 6 9c5 9 34 13 34 5zm4-41c-11-8-26-14-34-14h-15l28 15c15 8 27 20 28 27l1 12 5-13 5-13-18-14zm106 31c0-3-4-8-10-11l-10-6v10c0 6 5 11 10 11 6 0 10-2 10-4zm990-5c0-5-13-16-30-25-34-16-38-11-12 15 18 19 42 25 42 10zm716-30-18-20 6-10 6-10-9-5-10-6-7 22-6 21 18 14c10 7 22 13 27 13h10l-17-19zM800 890c0-5-5-10-11-10h-10l6 10c3 6 8 10 11 10 2 0 4-4 4-10zm207-22-5-13-1 19c-1 11 2 17 5 13 3-3 4-12 1-19zm1257-33-6-15-9 6c-14 8-10 24 6 24h14l-5-15zm-503-98-12-12 7 18c3 10 9 15 12 12s0-11-7-18zm95-94c2-9-3-22-11-29l-13-13-6 21-5 22 11 13c12 15 21 10 24-14zM980 2950c0-13 11-13 30 0l15 10h-45v-10zm1081-6 1-19 5 13c3 7 2 16-1 19-3 4-6-2-5-13zm-1036-14c3-5 10-10 16-10 5 0 9 5 9 10 0 6-7 10-16 10h-15l6-10zm1185-149c0-6 5-13 12-17l11-7-7 11-6 10 17 5 18 5-22 1-23 1v-9zm-1163-88c-4-3-7-13-7-22v-15l14 20 15 19 6-18 7-18 14 12 14 11-6 9c-6 10-48 12-57 2zm961-120c7-3 16-2 19 1 4 3-2 6-13 5l-19-1 13-5zm40 0c7-3 16-2 19 1 4 3-2 6-13 5l-19-1 13-5zm40 0c7-3 16-2 19 1 4 3-2 6-13 5l-19-1 13-5zm238-48-5-15h8c5 0 11 7 15 15l5 15h-8c-5 0-11-7-15-15zm14-45c0-5 5-10 10-10 6 0 10 5 10 10 0 6-4 10-10 10-5 0-10-4-10-10zm-2153-51c-23-26-21-32 4-19l21 12 14-19 13-18 1 22v22l-18 10-19 10-16-20zm145 4c9-10 13-23 11-30-2-6 1-14 6-18l11-6v14c0 8 7 17 15 21l15 5v31h-35l15-10 14-9-8-8-8-8-12 18c-7 9-19 17-26 17h-13l15-17zm-30-12c2-7 7-12 11-12 12 1 9 15-3 20l-12 4 4-12zm2158-1c0-5 5-10 10-10 6 0 10 5 10 10 0 6-4 10-10 10-5 0-10-4-10-10zm-1970-10-15-9 13-13 12-12 12 12 12 12-10 10-9 9-15-9zm-100-10-15-10h35v10c0 12-1 12-20 0zm2000-45v-17l11 4c6 2 11 8 11 13s-5 11-11 13l-11 4v-17zm-2039-15c0-15-6-31-12-37l-12-12 15-14 15-15 9 6c5 4 11 19 12 35l3 27h-10c-5 0-12 8-14 18l-5 17-1-25zm-81-51v-10l10 6c6 3 10 8 10 11 0 2-4 4-10 4-5 0-10-5-10-11zm2230-14c0-14 3-25 8-25 4 0 7 11 7 25s-3 25-7 25c-5 0-8-11-8-25zm90 9v-15l10 6 10 6-5 10c-9 14-15 11-15-7zm-2095-3-5-10 8-5c10-6 22 3 22 16 0 11-17 10-25-1zm-225-27v-14h14c8 0 17 4 20 9l6 9-20 5-20 5v-14zm-32-21c7-3 16-2 19 1 4 3-2 6-13 5l-19-1 13-5zm447-33c3-5 8-10 11-10 2 0 4 5 4 10 0 6-5 10-11 10h-10l6-10zm2035-330c0-5 5-10 10-10 6 0 10 5 10 10 0 6-4 10-10 10-5 0-10-4-10-10zm-1796-35-7-17 17-16 16-17 18 11 17 11v38l-28 3-27 3-6-16zm1356-130v-145h60v34c0 19 4 37 9 40l9 6 26-40 26-40h35c19 0 35 2 35 5s-16 27-35 54c-19 26-35 54-35 62 0 7 17 30 37 51l37 38h-68l-38-37-38-37v154h-60v-145zM0 1700v-140h61l-3 85c-2 47-1 85 2 85s18-39 34-86l28-85 31 3 30 3 33 95 32 95 1-97 1-98h60v280h-87l-33-100c-18-55-36-100-39-100-4 0-13 21-19 48-7 26-20 71-28 100l-15 52H0v-140zm1520 138c0-2-1-64-3-138l-2-135 28-3 27-3 1 98v98l20-60c10-33 24-77 30-98l10-38 32 3 31 3 30 95 31 95 3-97 3-98h59v280h-87l-33-105c-18-58-35-104-37-101-2 2-15 42-28 88-12 45-26 91-30 101l-7 17h-39c-21 0-39-1-39-2zm-1131-97-29-29v-103l24-24 24-24 33-6 34-5 30 8 30 8 3 22 3 21-49-6-50-6-11 20-10 20 6 7c3 3 33 6 65 6h58v62l-29 29-29 29h-74l-29-29zm91-26c17-21 9-27-31-23l-33 3 18 18c21 21 30 21 46 2zm90 50c0-3 12-51 27-106l26-99h66l16 52c8 28 15 61 15 72l1 21 8-15c5-8 15-41 22-73l12-58 36 3 35 3 28 90c15 50 28 96 28 103v13l-27-3-28-3-17-60c-9-33-17-62-18-65s-10 24-19 60l-17 65h-69l-17-60c-9-33-17-62-18-65s-9 24-18 60l-17 65-27 3c-16 2-28 0-28-3zm357-27c-2-18-2-66 1-105l5-73h58l-3 103-3 102-26 3-27 3-5-33zm113-73v-105h60v126l13 18 13 18 20-4 19-3 3-78 3-77h69v127l-11 32-11 31-18 10c-27 15-62 12-88-6l-22-15v31h-50v-105zm265 80-25-24v-21c0-12 5-30 10-41l11-19-10-17-9-17 9-17 9-17-15-12-15-12v-57l19-11 20-10h102l29 15 30 15 6 24 6 24-12 22-11 21-25 9c-14 6-41 10-60 10h-34v20h70l20 20 20 20v58l15 6 15 5v31h-151l-24-25zm83-48 3-27h-42l-5 15c-4 8-3 22 0 31l6 15 17-3 18-3 3-28zm21-146 14-9-6-16-6-16h-80l-6 10c-4 6-4 17-1 25l5 15h33c18 0 39-4 47-9zm498 212-18-5 3-21 3-21 48 3 47 3v-32h-29c-16 0-41-4-55-10l-26-10-11-23-10-23 10-27 11-27 27-11 28-10 32 15 33 16v-20h50v83c0 45-4 87-8 93-19 29-81 41-135 27zm83-126c0-19-21-37-42-37h-18v50h60v-13zm120 28v-105h60v126l12 12c7 7 22 12 34 12h22l5 26 5 26-16 6-15 5-28-15-28-16-5 14-5 14h-41v-105zm424 82-27-24-5-54-4-54 27-27 27-28 32-6 32-6 35 9 34 9 3 23 4 22-47-6-46-7-21 18-20 19 68 5 69 5-1 39-2 40-26 23-27 23h-78l-27-23zm94-44 4-13h-62v31l27-3 26-3 5-12zm-28-203c0-5 5-10 10-10 6 0 10 5 10 10 0 6-4 10-10 10-5 0-10-4-10-10zm6-66c-9-24 2-30 26-15l21 13 6-10 6-10 30 6 30 5-35 13c-19 7-45 13-56 13l-22 1-6-16zm-46-14c0-5 5-10 10-10 6 0 10 5 10 10 0 6-4 10-10 10-5 0-10-4-10-10zm-60-41v-10l10 6c6 3 10 8 10 11 0 2-4 4-10 4-5 0-10-5-10-11zm-95-59c3-5 13-10 21-10s14 5 14 10v10h-41l6-10zm102-67c-4-3-7-11-7-17v-10l12 12c6 6 9 14 7 17-3 3-9 2-12-2zm-142-13-6-10h8c4 0 15 5 23 10l15 10h-17c-9 0-20-4-23-10zm-2198-27-17-5 5-9c9-14 22-11 29 6 3 8 4 14 3 14-1-1-10-3-20-6zm2069-52-6-10 9-5 10-6 5 9 6 10-9 5-10 6-5-9zm-1906-72v-10l10 6c6 3 10 8 10 11 0 2-4 4-10 4-5 0-10-5-10-11zm1390-59c0-5 5-10 11-10h10l-6 10c-3 6-8 10-11 10-2 0-4-4-4-10zm-1225-10c3-5 8-10 11-10 2 0 4 5 4 10 0 6-5 10-11 10h-10l6-10zm20-20-6-10h10c6 0 11 5 11 10 0 6-2 10-4 10-3 0-8-4-11-10zM404 564c3-9 6-21 6-27l1-12 14 19c16 21 11 36-12 36h-15l6-16zm-4-58c0-2 9-6 20-9l20-5v9c0 5-9 9-20 9s-20-2-20-4zm115-6-6-10h10c6 0 11 5 11 10 0 6-2 10-4 10-3 0-8-4-11-10zm-52-330c6-11 16-19 20-17 16 5 9 21-12 29l-21 7 13-19zm73-6c-3-9-6-49-6-90V0h43l-7 31c-3 17-6 58-6 90v59h-9c-5 0-12-7-15-16z"/></g><g fill="#5c646c" transform="matrix(.1 0 0 -.1 0 300)"><path d="M111 2963c-2-21-4-51-5-67l-1-29-12-4-13-5v22H45l15 10 15 10H63c-6 0-18-6-25-13-7-8-20-16-28-20l-15-5 23-1c26-1 28-10 6-37-8-10-12-13-8-5l7 14-11-7-12-7v-38c0-21 3-41 8-45 4-4 7-13 7-19v-12l20-1c11-1 26-2 33-3l12-1v-41l8 5 8 4-2-26-1-27-12 3c-14 3-14-11 0-25l11-11-5-9-6-9-40 2-41 2 1-74 1-74 9-6 9-5-5-10-6-9h7c4 0 15 7 25 16l18 16 25 2 26 1v35h32l-12-15-12-14 10-28 10-28 1 26 1 26 21 24 21 24 15-3 15-3-7 10-6 11h151v-10c0-5 5-10 11-10h10l-6 10-6 10 88-1c48-1 80-3 71-6l-17-4 18-18 18-18-1-106-1-107 13-5c7-2 17-15 22-27l9-23v28l1 27h19l-6 17-6 16 17-6c10-4 23-7 29-8h12l-20-9-20-9 115 1c63 1 103 3 87 5l-27 4 5 10 6 9h-15c-9 0-16 5-16 10 0 14 13 13 28-2l12-12 7 8 7 7-9 7c-6 4-16 17-23 30l-12 22h8c4 0 13-5 19-11l12-12 7 27 6 27 14-12 14-11v10c0 6-9 13-20 17l-19 6 12 20 12 20-15 9-14 9 19 7c11 4 23 13 27 20l8 12 65-2 66-2 8 10 9 11-4 33-4 33 15 5c21 8 19 21-4 29l-18 5 2 53c1 29 5 59 9 66l8 12-21 23-21 22v234h-40v-177c0-97-3-174-6-171-3 4-5 83-4 177l1 171H114l-3-37zm76-49c-3-3-12-4-19-1l-13 5 19 1c11 1 17-2 13-5zm790-221-5-18v60l5-12c2-7 2-21 0-30zM80 2480c0-5-7-10-15-10s-15 5-15 10c0 6 7 10 15 10s15-4 15-10zm485-230 6-10h-32l6 10c3 6 8 10 10 10s7-4 10-10zm2009 630v-125l3 63c2 34 2 90 0 125l-3 62v-125zm259 50v-75l4 38c2 20 2 54 0 75l-4 37v-75zm42-345c0-231 1-324 2-207 2 117 2 306 0 420-1 114-2 18-2-213zM10 2680c0-5 4-10 9-10 6 0 13 5 16 10l6 10H26c-9 0-16-4-16-10zm-3-27c-4-3-7-22-7-42v-35l14 20 15 19-10 10-9 9 22 13 23 12-21 1c-11 0-24-3-27-7zm18-73-6-10h10c6 0 11 5 11 10 0 6-2 10-4 10-3 0-8-4-11-10zm1019-26-19-15 23 11c12 6 22 13 22 15 0 8-5 6-26-11zm1790-229c0-93 2-133 3-88 2 45 2 122 0 170l-3 88v-170zM500 2439v-10l10 6c6 3 10 8 10 11 0 2-4 4-10 4-5 0-10-5-10-11zm-149-35 1-19 5 13c3 7 2 16-1 19-3 4-6-2-5-13zm134-4-6-10h15c8 0 18 5 21 10l6 10h-15c-8 0-18-4-21-10zm377-12 3-23h40l3 23 3 22h-52l3-22zm-515-83-6-14 9-6 10-6v20c0 25-6 27-13 6zm590-461c-4-4-7-16-7-26v-18h51l-3 22-3 23-15 3c-9 1-19 0-23-4zm1343-139v-145h50v28c0 15 5 34 10 42l11 15 29-35c17-19 30-38 30-42v-8h71l-42 59-42 59 38 46 37 46h-54l-44-47-44-48v175h-50v-145zM7 1833c-2-4-2-68 1-141l5-133 20 3 21 3-3 100-3 100 7-7c4-4 22-49 39-100l31-93 26-3 26-3 33 100c18 56 36 98 39 95s6-47 6-97v-92l23-3 22-3 2 95c1 53 2 115 3 139v42h-78l-34-102c-19-57-38-103-42-103s-20 46-37 103l-29 102-37 3-36 3-5-8zm1520 0c-4-3-7-67-7-140v-134l23 3 22 3-1 98c0 53 2 97 6 97 3 0 19-44 36-97l29-98 27-3 27-3 33 103 33 103 3-102 3-103h49v281l-37-3-37-3-34-109-33-109-8 9c-4 5-16 41-26 79-10 39-24 85-31 103l-13 32h-29c-16 0-32-3-35-7zm1243-32c0-5-13-23-30-39l-29-30 19-5 20-5v-138l12-12 12-12h84l6 16c9 23 8 24-19 24h-26l-5 13c-3 8-6 33-7 57l-2 44 25 6 25 6 3 22 3 22h-61v40h-15c-8 0-15-4-15-9zm-2350-42-26-9-17-29-17-29v-74l30-29 30-30 52 3 53 3 3 20 3 21-41-4-40-4-15 12c-8 7-15 19-15 26v14h130v20c0 12-6 33-14 49l-15 27-26 12c-30 14-40 14-75 1zm69-48 10-18-6-7c-3-3-19-6-34-6h-28l-6 10-7 11 12 14c7 8 21 15 31 15h18l10-19zm214 47c-6-7-16-38-23-68s-15-59-18-64l-6-10-15 70-16 69-26 3-26 3 27-98 27-98h58l21 74 21 74 5-9c3-5 8-22 12-39 4-16 12-47 17-67l10-38h29c17 0 30 2 30 3 0 2 13 48 29 101l29 97-14 6-14 5-14-11-13-11-13-60c-7-34-16-63-20-65l-7-4-13 57c-7 31-16 65-21 75l-10 17h-18c-10 0-23-6-28-12zm234 5c-4-3-7-51-7-105v-98h50v210h-18c-10 0-22-3-25-7zm179-14-26-20v31h-40v-201l23 3 22 3 3 65 3 64 11 13 10 13h46l6-16c3-9 6-45 6-80v-64h50v169l-26 20c-15 12-34 21-44 21s-29-9-44-21zm203 7-24-11-3-38-3-38 12-15 11-14-12-15-12-15 6-16 6-17-16-18-16-17 4-23 3-23 25-14 25-13 47 4 47 4 25 17 26 16v57l-18 16-19 17h-24c-34 0-69 11-69 21v9h56l22 16 22 15v69h15c8 0 15 5 15 10v17c0 4-29 8-64 9l-64 2-23-12zm71-56v-28l-12-5c-7-2-19-2-25 1l-13 4v56l13 5c6 2 18 2 25-1l12-4v-28zm28-162 3-18-25-11-26-12-25 11-25 12v41l47-3 48-3 3-17zm502 223-25-7v-29h90l3-17 3-17-46-7-46-6-14-15-15-14v-58l16-15 15-16h25c14 0 35 5 46 11l20 11 11-11c6-6 19-11 29-11h18v158l-17 21-18 22-35 4c-19 2-46 1-60-4zm68-128-3-28-28-3-27-3-7 17-6 17 18 13c10 8 27 14 38 14h18l-3-27zm198 116-26-20-6 15-6 16h-38v-200h48l4 65 4 65 12 12c6 6 22 12 34 13l23 2 3 26 3 27h-14c-8 0-26-9-41-21zm352-8-33-29v-104l28-24 28-24h44c24 0 50 3 59 6l16 6v33l-45-3-45-4-15 12c-8 7-15 19-15 26v14h130v25c0 13-5 35-11 48l-11 25-25 11c-13 6-35 11-48 11h-25l-32-29zm92-26 12-14-7-11-6-10h-58l-6 10-7 11 12 14c7 8 20 15 30 15s23-7 30-15zm55-325 6-10 10 5c14 9 11 15-7 15h-15l6-10zm-25-19c0-5 7-11 15-15l15-5v8c0 5-7 11-15 15l-15 5v-8zm100-1c0-5 5-10 10-10 6 0 10 5 10 10 0 6-4 10-10 10-5 0-10-4-10-10zm125-40c3-5 8-10 11-10 2 0 4 5 4 10 0 6-5 10-11 10h-10l6-10zm-185-16v-15l10 6 10 6-5 10c-9 14-15 11-15-7zm-81-26c0-2-2-16-4-33l-4-30 7 11c4 6 15 13 24 17l18 6-6 16c-5 12-32 22-35 13zm58-5-7-6 12-14 11-14-12-12-12-12-69-1h-69l-13-12-14-12-76-1-76-1-13-9-14-9h20l-15-10-15-10h26l-11-20-10-20 17 7c10 3 23 10 29 15l12 9-2-26-1-25h-12c-17 0-16-10 1-24l15-11-6-27-5-28h-14c-8 0-14-4-14-10 0-5 5-10 10-10 14 0 12-18-2-23-7-2-5-3 6-1l19 3 15-15 15-16-14 2c-8 1-20 2-26 1l-13-1v-15c0-7 8-19 18-24l17-10-25-1c-15 0-31-5-37-11l-10-10-14 14c-8 7-24 16-36 19l-23 6v-7c0-11 43-46 58-47 6-1 16-2 22-2l9-2-6-17-7-18 18 14 17 14 14-14c7-8 16-25 20-39l6-26-23-27c-13-15-27-27-31-27h-8l6 20 6 20h-22l6-10 6-10h-9c-5 0-17 9-27 20l-18 20 14 1c8 1 18 1 22 0l8-1-6 10c-9 15-31 12-45-5l-13-15-13 11c-8 6-14 21-14 33l-1 21-16-20-15-20 5 22 5 23-9 6-9 5v61c0 34-2 59-4 57-4-4-12-86-15-161-1-10-5-18-9-18h-9l5 30 4 30-23 1-24 1 13 5c6 2 12 9 12 14v8l-15-5-15-6v-36l13-5 12-5-11-1c-13-1-32 19-32 34 0 5-5 11-11 13l-11 4 6-15 5-15-25-6-25-6-6-20-6-20h-24c-13 0-25 3-28 8-5 9 1-13 9-33l6-15h-12c-6 0-18-7-26-15-9-8-20-15-25-15h-10l7 12 7 11-19-7c-10-4-37-10-59-13-50-7-52-9-25-23l23-12 6 9 6 9 16-17 17-17-8-12c-4-7-5-21-3-31l5-19-16 6-16 6-1-13c-1-8-2-35-3-61 0-25-4-49-7-53l-7-6-4 46-3 47 7 5 8 4-12 13c-7 7-21 15-30 19l-18 6-6-24-6-24 7-10 6-11h-31v68l13 5 12 5-13 10-13 9-2 69-2 69-52 3-53 3v48l-21 12-21 11 7-24 7-23-25 23-25 24-5-9c-3-5-20-10-37-11l-31-2-14 14c-8 7-12 16-9 19 3 2-4 7-15 10l-20 5-6-29-7-29h-31l6 34 5 34-16 7-16 6-12-16-11-15-13 15c-7 8-21 15-32 15h-19l2 13c1 6 0 19-4 27-3 8-8 22-10 30l-5 15-1-29-1-28-21 5-20 5 4-11 4-12 17 3 16 3v-62l-20 11-20 11v-32l8 5c4 2 14 0 22-5l15-9-17-14c-10-7-18-19-18-26v-12l14 5 15 6-6-14-5-15-19 11-19 10-6-15-6-15-14 6-14 5v-32l-35 17-35 17v66l-17-1-18-1 10-4 10-4-2-37c-1-21-2-44-2-50l-1-13-32 1-33 2 28 4 27 4v79l-23-15-24-15-7 7-8 8-14-20c-8-11-18-19-22-17-4 1-7-4-7-10v-13l-23 1c-12 0-22-3-22-8 0-4-4-8-8-8-5 0-9 7-9 15v15h14c19 0 16 17-4 29l-18 10 20 15c23 17 13 21-15 6l-18-10 2-35 3-35h-13c-7 0-18 9-25 21l-11 21 21-7 21-6v10c0 11-12 15-42 12l-18-2v65l-12-12c-7-7-15-12-20-12h-7l6 17 6 16-17-6c-10-4-20-7-22-7-3 0-2-4 1-10l6-10h-20l-3 23-3 22-23 3-24 4 6 14 5 14h-20l7 11 7 12-28-7-28-7 13 16 13 15-8 8-8 7-4-12c-3-7-11-13-19-13h-14v-30h-45l12 8 11 7v58l-1 57-8 6-9 5v-81h-10c-5 0-10-7-10-16v-15l10 6 10 6v-10c0-5-10-13-21-16l-22-7 14-8 13-9-28-12-27-13-10 15-9 14-21-24-20-24-14 19-14 19-1-12v-13h-28l5-20 5-20-16 6c-9 3-16 10-16 15 0 4-18 14-40 20l-40 12-1 31v31l-8-19c-4-10-6-35-5-55l2-36-64-2-64-1v9c0 5 5 9 10 9 6 0 10 7 10 16v15l13-6c6-4 1 2-11 12l-24 19 2 50c1 27 1 58 1 68l-1 20-14-20-14-19 7-10c10-12 12-40 5-83l-5-33-13 10-14 11-5-22-6-22 11-14 12-13-39 3-38 3-3 17c-1 10 2 21 8 24l10 7 9-14 8-13 6 19c14 41 14 45 3 51l-11 7-11-16-12-15-17 9-17 10V70h165l-15-10-15-10H0V0h310v14c0 8-7 22-17 31l-16 17 10 6 11 7-2 252-1 251 8 9 9 8 134 5 134 5 4-10c2-6 4-130 5-275 0-146 0-278 1-293V-1l240 2 240 1v18h60v20h-60v30h31l-7 23-6 22 27-25 28-25-6 18-7 19 12-4c7-3 22-22 33-43s27-41 34-43l14-5-5 15-6 15h28V0h50v15c0 8-3 14-7 14-5-1-14-1-21 0l-13 1 6 10 7 11-10 12-9 12 21 31 22 31 19-7 19-7-17-6c-9-3-17-11-17-17V89l9 5 9 6 5-21 6-21 10 7 11 6V52l30-4 29-4 5 12c7 18-4 24-46 24h-39l16 16 16 16-10 12-11 12 31-4 30-4-4-12-4-11-17 3-16 3V90h26c14 0 34-4 44-10l18-10 12 15 13 15 18-5 19-6v26l8-11c4-6 32-15 62-21l55-10-37-2-38-1v-9c0-5 6-12 13-15l12-5-18-11c-21-14-22-30-1-30h15l-6 10-6 10h15c9 0 16-4 16-10 0-5 4-10 9-10h9l-5 20-5 20h22V9l10 6 10 6V0h190l1 133 1 132 8-25c4-14 8-73 9-132l1-108h1150v1218l-19-5-19-5-7 21-6 21-12-7c-7-4-18-8-24-9l-13-2v22l-14-20-14-19-24 22-23 21-14-16-15-15-4 11c-5 17-22 15-44-4l-18-17-13 12-14 11 5 25 4 25h-14c-8 0-18-3-21-7zm-124-80c-7-2-19-2-25 0l-13 5h50l-12-5zm54-260-5-18v70l5-17c2-10 2-26 0-35zM670 910c0-5-5-10-11-10h-10l6 10c3 6 8 10 11 10 2 0 4-4 4-10zm650-40c0-5-5-10-11-10h-10l6 10c3 6 8 10 11 10 2 0 4-4 4-10zm40-16v-15l-10 6c-5 3-10 10-10 16 0 5 5 9 10 9 6 0 10-7 10-16zm-1040-4c0-5-7-10-15-10s-15 5-15 10c0 6 7 10 15 10s15-4 15-10zm410 0c0-5-4-10-10-10-5 0-10 5-10 10 0 6 5 10 10 10 6 0 10-4 10-10zm565-10 6-10h-10c-6 0-11 5-11 10 0 6 2 10 4 10 3 0 8-4 11-10zM75 821l5-10-10-6c-6-4-18-4-26-1l-15 6 6 10c8 13 32 13 40 1zm182-6v-14l-9 5-8 5 5 10c9 13 12 11 12-6zm1283 5c0-5-5-10-11-10h-10l6 10c3 6 8 10 11 10 2 0 4-4 4-10zm-1322-7-18-4v-32l-7 6-6 7-14-11-13-11v7c0 5 7 17 17 27l16 18 21-1 21-1-17-5zm6-65c-2-3-13-4-23-1l-19 5 16 17 17 17 6-16c4-8 5-18 3-22zm1916 22c0-5-5-10-11-10h-10l6 10c3 6 8 10 11 10 2 0 4-4 4-10zm-1020-20c0-5-4-10-10-10-5 0-10 5-10 10 0 6 5 10 10 10 6 0 10-4 10-10zm1015-30c-3-5-12-10-18-10h-12l15 10c19 12 23 12 15 0zm-126-9 13-8-12-8-12-7-16 16-16 16h14c8 0 21-4 29-9zm68-65c-4-9-10-16-15-16h-9l3 23c1 12 3 24 3 27 1 2 6-1 12-7l12-12-6-15zm-782 13 6-9h-25c-14 0-26 4-26 8 0 11 39 12 45 1zm659-81 10-7-7-7-7-8-9 10c-5 5-12 23-16 39l-5 30 12-25c7-14 17-28 22-32zm36 22c0-5-2-10-4-10-3 0-8 5-11 10l-6 10h10c6 0 11-4 11-10zm40 6c0-3-4-8-10-11l-10-6v10c0 6 5 11 10 11 6 0 10-2 10-4zm-190-206-7-55-2 42c-1 36 7 80 14 71 1-2-1-28-5-58zm-3-102-5-13-1 19c-1 11 2 17 5 13 3-3 4-12 1-19zm-322-48 6-10-8 1c-4 0-17 4-28 9l-20 9h22c12 1 25-3 28-9zm35-14c0-8-4-18-10-21l-10-6v41h10c6 0 10-6 10-14zm-39-39 7-26-11-6c-7-3-1-3 13 0l26 4-2-26-1-27-13-4-13-5 6 17 7 17-11-7-11-7-9 14-9 14v-20l-1-20-15 20c-8 11-19 20-24 20-4 0-11 3-15 7l-6 6 29 7 29 6-5 26-5 26 14-5 13-4 7-27zm-151 5c0-10-22-32-32-32-13 0-9 28 5 33 19 8 27 8 27-1zm-308-87 5-25-8-6-9-5v15c0 8-5 16-12 18l-12 4 8 12c12 19 23 14 28-13zm418 5c0-15-26-23-41-14l-13 7 20 8c27 11 34 10 34-1zm-456-35 5-15h-9c-6 0-10 7-10 15s2 15 4 15 6-7 10-15zm663-11c-3-3-12-4-19-1l-13 5 19 1c11 1 17-2 13-5zM230 60c0-5-2-10-4-10-3 0-8 5-11 10l-6 10h10c6 0 11-4 11-10zm2075 1020c3-5 13-10 21-10s14 5 14 10v10h-41l6-10zm35-40c0-5 5-10 11-10h10l-6 10c-3 6-8 10-11 10-2 0-4-4-4-10zM0 1015v-14l15 5c8 4 15 10 15 15s-7 9-15 9H0v-15zm271-21 1-19 5 13c3 7 2 16-1 19-3 4-6-2-5-13zm36-40c-9-10 2-24 19-24h14v30h-13c-8 0-17-3-20-6zm158-24c3-5 11-10 16-10h10l-6 10c-3 6-11 10-16 10h-10l6-10zm-165-21v-10l10 6c6 3 10 8 10 11 0 2-4 4-10 4-5 0-10-5-10-11zm1815-9-6-10h10c6 0 11 5 11 10 0 6-2 10-4 10-3 0-8-4-11-10zm105-20c0-5 5-10 11-10h10l-6 10c-3 6-8 10-11 10-2 0-4-4-4-10zM185 870l-6-10h32l-6 10c-3 6-8 10-10 10s-7-4-10-10zm760-59-5-10 10-6 10-6v15c0 18-6 21-15 7zm959-22 1-29 13 5 12 4v-33l11 11 12 12-25 29-25 30 1-29zm-764-10v-10l10 6c6 3 10 8 10 11 0 2-4 4-10 4-5 0-10-5-10-11zm655-129-6-10h10c6 0 11 5 11 10 0 6-2 10-4 10-3 0-8-4-11-10zM547 442l-18-4 4-11c2-6 8-12 14-14l11-4 6 17c8 20 6 21-17 16zm-92-322-6-10 15 6c18 7 21 14 7 14-6 0-13-4-16-10zm85-55V0h20v130h-20V65zm-51 38c-1-5-1-11 0-15 0-5-5-9-11-9-7-1-19-2-27-3-8 0-15-8-17-16s-6-25-10-38l-6-22h90l4 18c3 9 3 34 0 55l-4 37h-9c-5 0-10-3-10-7zm1021-43c0-5 4-11 9-15l10-5 5 9 6 9-15 6-15 5v-9zm-56-24-19-15 11-11 12-12 18 4 19 3 1 23 1 22h-11c-7 0-21-6-32-14zM366 29c-16-4-33-6-38-3l-8 5V0h90v14c0 21-11 24-44 15zm934 1c0-5 5-10 10-10 6 0 10 5 10 10 0 6-4 10-10 10-5 0-10-4-10-10zm-140-20c0-5 5-10 11-10h10l-6 10c-3 6-8 10-11 10-2 0-4-4-4-10zm350 0c0-5 5-10 11-10h10l-6 10c-3 6-8 10-11 10-2 0-4-4-4-10z"/></g><g fill="#cd282b" transform="matrix(.1 0 0 -.1 0 300)"><path d="M142 2975v-30l5 18c2 9 2 23 0 30l-5 12v-30zm45 18c-4-3-7-10-7-15v-9l23 5c12 3 16 3 10 0-7-3-13-12-13-19v-14l-17-4-18-4 32 1 33 1v12c0 6 5 15 10 18l11 7 13-11 12-10 17 19c22 26 21 30-3 30h-20v-24l-12 12-12 12h-26c-15 0-30-3-33-7zm126-18c-27-27-29-37-5-28l17 7-15-19-15-18 13-4c6-3 12-9 12-14v-10l-18 10-19 10-21-6c-12-3-22-9-22-13v-8l-17 4c-24 6-39-6-47-36-3-14-3-19 0-12l6 12 10-6 9-6-21-15-22-15-10 10-11 11-7 63-7 63-3-80c-3-118-8-176-14-182-3-4-1-12 5-19l10-12-10-6-10-7 5-14 6-15-16-6-16-6 6-9c3-5 9-7 14-4l9 5-2-19-1-20-8 5-8 5v-41H80c-5 0-10-7-10-15v-15h31l-16-16-16-16-15 6-15 6 6 10 6 10h-8c-4 0-15-6-23-13l-15-12-3-27-3-26 11-7 10-6-5-10-6-9h7c4 0 15 7 25 16l18 16 25 2 26 1v35h30l-11-18-12-19 11-19 11-19 1 21v21l21 24 21 24 14-3 14-3-2 13-3 13h324l5-20c3-11 6-63 6-116v-97l19-5c24-6 31 0 31 29v22l16 6c24 9 29 7 17-5l-12-12 27-22 27-23 43 4 42 3v-21l-55 4-55 5v-17l83 1 82 1-20 5c-23 6-35 21-35 46v17h32l-12 15c-7 8-9 15-6 15 4 0 1 7-8 15-16 16-30 20-22 6 4-5 3-16 0-25l-6-16-19 11-20 10 6 22 5 22-11-22c-7-13-16-23-21-23-12 0-10 14 4 28l12 12h-27l7 8c4 4 12 8 17 8 5 1 13 2 19 3l10 1-3 23-2 22 28-3 29-3 5 20c6 24 23 28 23 6 0-8-4-15-9-15s-11-9-14-21l-5-20 11 4c7 2 17 12 22 23l10 19 20 3c11 2 25 7 30 12l10 8 63-2 63-2 8 10 9 11-4 33-4 33 15 5c21 8 19 21-4 29l-18 5 2 53c1 29 5 59 9 66l8 12-21 23-21 22v234h-40v-177c0-97-3-174-6-171-3 4-5 83-4 177l1 171-293-1-293-1-22-23zm7-109c0-2-7-7-16-10l-15-6 6 10c6 10 25 14 25 6zm-50-56v-10h-51l6 10c3 6 15 10 26 10h19v-10zm707-117-5-18v60l5-12c2-7 2-21 0-30zm-807-8c0-8-4-15-10-15-5 0-10 7-10 15s5 15 10 15c6 0 10-7 10-15zm-33-57-5-13-1 19c-1 11 2 17 5 13 3-3 4-12 1-19zm333-68c0-5-5-10-11-10h-10l6 10c3 6 8 10 11 10 2 0 4-4 4-10zm180-200c0-5-5-10-11-10h-10l6 10c3 6 8 10 11 10 2 0 4-4 4-10zm-70-76c0-8-4-14-10-14h-10v41l10-6c6-3 10-13 10-21zm2294 521c0-110 2-156 3-103 2 53 2 143 0 200l-3 103v-200zM33 2563c-7-2-13-11-13-19v-15l28 3 27 3v30l-15 2c-8 1-21-1-27-4zm1002-13-6-10 15 6c18 7 21 14 7 14-6 0-13-4-16-10zm-540-150-6-10h10c6 0 11 5 11 10 0 6-2 10-4 10-3 0-8-4-11-10zm369-6c3-9 6-18 6-20s9-4 20-4h20v40h-52l6-16zm-74-4c0-5 4-10 9-10 6 0 13 5 16 10l6 10h-15c-9 0-16-4-16-10zm-250-154c0-2 9-6 20-9l20-5 6 9 5 9h-25c-14 0-26-2-26-4zm397-392c-4-4-7-16-7-26v-18h51l-3 22-3 23-15 3c-9 1-19 0-23-4zm1343-139v-145h50v28c0 15 5 34 10 42l11 15 29-35c17-19 30-38 30-42v-8h71l-42 59-42 59 32 38c37 45 38 54 10 54h-21l-44-47-44-48v175h-50v-145zM7 1833c-2-4-2-68 1-141l5-133 20 3 21 3-3 100-3 100 7-7c4-4 22-49 39-100l31-93 26-3 26-3 33 100c18 56 36 98 39 95s6-47 6-97v-92l23-3 22-3 2 95c1 53 2 115 3 139v42h-78l-34-102c-19-57-38-103-42-103s-20 46-37 103l-29 102-37 3-36 3-5-8zm1520 0c-4-3-7-67-7-140v-134l23 3 22 3-1 98c0 53 2 97 6 97 3 0 19-44 36-97l29-98 27-3 27-3 33 103 33 103 3-102 3-103h49v281l-37-3-37-3-34-109-33-109-8 9c-4 5-16 41-26 79-10 39-24 85-31 103l-13 32h-29c-16 0-32-3-35-7zm1243-32c0-5-13-23-30-39l-29-30 19-5 20-5v-138l12-12 12-12h84l6 16c9 23 8 24-19 24h-26l-5 13c-3 8-6 33-7 57l-2 44 25 6 25 6 3 22 3 22h-61v40h-15c-8 0-15-4-15-9zm-2350-42-26-9-17-29-17-29v-74l30-29 30-30 52 3 53 3 3 20 3 21-41-4-40-4-15 12c-8 7-15 19-15 26v14h130v20c0 12-6 33-14 49l-15 27-26 12c-30 14-40 14-75 1zm69-48 10-18-6-7c-3-3-19-6-34-6h-28l-6 10-7 11 12 14c7 8 21 15 31 15h18l10-19zm214 47c-6-7-16-38-23-68s-15-59-18-64l-6-10-15 70-16 69-26 3-26 3 27-98 27-98h58l21 74 21 74 5-9c3-5 8-22 12-39 4-16 12-47 17-67l10-38h29c17 0 30 2 30 3 0 2 13 48 29 101l29 97-14 6-14 5-14-11-13-11-13-60c-7-34-16-63-20-65l-7-4-13 57c-7 31-16 65-21 75l-10 17h-18c-10 0-23-6-28-12zm234 5c-4-3-7-51-7-105v-98h50v210h-18c-10 0-22-3-25-7zm179-14-26-20v31h-40v-201l23 3 22 3 3 65 3 64 11 13 10 13h46l6-16c3-9 6-45 6-80v-64h50v169l-26 20c-15 12-34 21-44 21s-29-9-44-21zm203 7-24-11-3-38-3-38 12-15 11-14-12-15-12-15 6-16 6-17-16-18-16-17 4-23 3-23 25-14 25-13 47 4 47 4 25 17 26 16v57l-18 16-19 17h-24c-34 0-69 11-69 21v9h56l22 16 22 15v69h15c8 0 15 5 15 10v17c0 4-29 8-64 9l-64 2-23-12zm71-56v-28l-12-5c-7-2-19-2-25 1l-13 4v56l13 5c6 2 18 2 25-1l12-4v-28zm28-162 3-18-25-11-26-12-25 11-25 12v41l47-3 48-3 3-17zm502 223-25-7v-29h90l3-17 3-17-46-7-46-6-14-15-15-14v-58l16-15 15-16h25c14 0 35 5 46 11l20 11 11-11c6-6 19-11 29-11h18v158l-17 21-18 22-35 4c-19 2-46 1-60-4zm68-128-3-28-28-3-27-3-7 17-6 17 18 13c10 8 27 14 38 14h18l-3-27zm198 116-26-20-6 15-6 16h-38v-200h48l4 65 4 65 12 12c6 6 22 12 34 13l23 2 3 26 3 27h-14c-8 0-26-9-41-21zm352-8-33-29v-104l28-24 28-24h44c24 0 50 3 59 6l16 6v33l-45-3-45-4-15 12c-8 7-15 19-15 26v14h130v25c0 13-5 35-11 48l-11 25-25 11c-13 6-35 11-48 11h-25l-32-29zm92-26 12-14-7-11-6-10h-58l-6 10-7 11 12 14c7 8 20 15 30 15s23-7 30-15zm47-432-7-6 12-14 11-14-28-27c-15-15-25-21-21-14l7 12h-89l-4-12-4-11-72-2c-74-3-114-15-51-15l34-1-29-15-29-16 11-7 11-7-8-13-8-13-7 11-7 11-10-6c-5-3-7-9-4-14s1-11-5-15l-10-6 5-10 6-9 20 10 19 11 11-6 10-7-12-14-11-14-9 6-9 5v-10c0-5 6-12 13-15l12-6-22 4-23 4v-40l-15 6-15 5v-9c0-5 5-12 10-15l10-6 12 7c18 11 57 14 63 4l5-8-16-6-15-6 7-11 7-11 8 13 8 13 8-7 7-8-10-17-11-17-39-6c-21-3-33-7-26-8 6 0 12-7 12-14v-14l-25-11c-14-6-25-16-25-22v-10l18 8c9 5 32 16 50 25l33 17-6-10-6-10 15-16 16-15v15c0 8 4 17 9 21l10 5-1-30-1-30h-12c-6 0-16 5-23 12l-12 12v-10c0-6 9-19 21-30l20-18 9 14 9 14 7-6 6-7-15-16c-9-8-20-15-26-15-13 0-41-29-41-42v-10l17 13 17 14-7-18c-4-10-7-21-7-23s-7-4-15-4c-7 0-18-7-23-16l-9-16-49-3c-27-1-49-3-49-5 0-1-10-3-22-6l-23-4v48l13 5 12 5-20 1c-12 1-27 7-34 14l-12 12 6-17 7-18h-10c-14 0-22 36-22 104 0 33-2 57-5 55-2-3-5-61-5-130-1-68-4-134-7-146l-5-23h-14c-17 0-17-5-4-31l11-19h-10c-5 0-13 4-16 10l-6 10-34-3-33-2 9-17 10-18h-11c-5 0-10-7-10-15v-15h-14c-8 0-18 5-21 10-8 13-48 13-62-1l-11-11-11 7-11 6 16 17 17 16-14 5-13 4-4-11c-2-7-8-12-13-12h-10l3 18 3 17-13-3c-7-1-22 2-32 8l-20 11V0h1150v369l-42 4-43 4 22 7c12 5 24 15 28 23l5 16-15-13-15-13-21 19-21 19-14-20-14-20-20 13c-11 6-23 12-27 12-5 0 0-5 10-11 9-5 17-17 17-24v-15h-65l14 9 15 9-12 14-11 14 6 22 5 22h-40l-5 15-6 14 10 7 10 6-5 14-5 14h14c8 0 15 5 15 10 0 10-13 14-41 11l-16-2-6 20-5 20 25-10c33-12 42-3 17 16l-19 14 29 1h29l-16 18c-23 25-21 45 5 68l21 19-7-12-7-13h23l-7 18c-4 9-13 39-20 65l-12 49 13 5c8 3 21 20 30 39l16 34-17 26-17 26-23-22-22-21-6 20-5 21 9-6 9-5v51h41l-3 18c-1 9 1 22 5 29l7 12 33-10c17-5 49-8 70-7l38 2 11 19 10 19-6 24-6 24 15 6 15 6v86l-19-5-19-5-7 21-6 21-12-7c-7-4-19-8-27-8s-21-4-28-9l-13-8-19 17-18 17-21-12-21-11v11c0 5-7 10-15 10h-15v-38l-27-5-28-6-15 16-15 16 16-6 16-5 1 34 1 34h-13c-7 0-16-3-19-7zm-192-123 6-10h-10c-6 0-11 5-11 10 0 6 2 10 4 10 3 0 8-4 11-10zm215-60c0-5-4-10-10-10-5 0-10 5-10 10 0 6 5 10 10 10 6 0 10-4 10-10zm-91-174-9-10 1 45 1 44 8-35 9-35-10-9zm211-32c0-8-4-14-10-14h-10v41l10-6c6-3 10-13 10-21zm-590-218c0-2-7-6-15-9l-14-6-6 9-6 10h20c12 0 21-2 21-4zm481-33-10-18-1 16c0 17 10 32 18 25 2-3-1-13-7-23zm-501-13v-20h-20v40h20v-20zm510-20c0-5-4-10-10-10-5 0-10 5-10 10 0 6 5 10 10 10 6 0 10-4 10-10zm-600-110c0-5-4-10-10-10-5 0-10 5-10 10 0 6 5 10 10 10 6 0 10-4 10-10zm0-110c0-5-4-10-10-10-5 0-10 5-10 10 0 6 5 10 10 10 6 0 10-4 10-10zm677-66c-3-3-12-4-19-1l-13 5 19 1c11 1 17-2 13-5zm-150-206-4-43v170l4-42c2-24 2-62 0-85zm-27 1152c0-5 7-10 15-10s15 5 15 10c0 6-7 10-15 10s-15-4-15-10zm-242-107c7-3 16-2 19 1 4 3-2 6-13 5l-19-1 13-5zm-38-24v-10l10 6c6 3 10 8 10 11 0 2-4 4-10 4-5 0-10-5-10-11zm-25-59c3-5 8-10 11-10 2 0 4 5 4 10 0 6-5 10-11 10h-10l6-10zM0 1015v-14l15 5c8 4 15 10 15 15s-7 9-15 9H0v-15zm2940-25c20-13 40-13 40 0v10h-55l15-10zm-554-17-7-18 12 12c7 7 10 15 7 18s-9-2-12-12zM307 954c-9-10 2-24 19-24h14v30h-13c-8 0-17-3-20-6zm2518-4c3-5 10-10 16-10 5 0 9 5 9 10 0 6-7 10-16 10h-15l6-10zM44 926l-6-16-19 11-19 10V568l12 4c7 3 15 15 18 29l6 24 47 3 47 3 1 22v22l11-21 10-21 21 2 22 2-17-4c-21-5-24-19-5-26l12-5-17-1c-9-1-20 4-23 9-3 6-15 10-26 10h-19v-30H86c-8 0-18-5-22-12l-7-11 27-24c31-27 46-29 46-8v15h18l17 1-23 19-22 19 9 5 9 6 36-15c20-8 39-16 43-18 10-3 4-21-8-25-5-2-9-8-9-14v-10l16 6 17 6 13-11 14-12-20-17-21-18 11-7 10-6v23l16-6 15-6-6 10c-3 6-3 15 1 21l7 11 8-13 9-14v115h89c48 0 116 3 150 6l61 7V145l10 15 10 15V99l-12 7-13 8 13-16c7-9 12-22 11-30-1-7-1-26 0-43l2-30 9 22 9 21-3 104c-1 56 0 111 2 121l5 19 8-13c4-7 17-13 28-14l21-2v9c0 4 4 8 9 8h9l-2-25c0-14-4-25-8-25-5 0-7-3-7-7 1-5 1-14 0-21l-1-13-22 5c-13 3-17 3-10 0 6-3 12-10 12-16v-10l-14 5-13 5-1-31-1-31 9 14 10 15V99l15-6 16-6 14 19 14 19 1-22c0-12 5-25 10-28l10-6v40l20 6 20 6 4 22c3 12 8 35 11 51l6 30 7-11c4-6 16-12 27-15l20-3-3-25-3-25 21-23 21-22-6-20-6-20h25l-9-9c-6-5-28-11-50-13l-40-4 30-8c17-5 33-14 37-20l7-11 28 16 28 16 29-8 30-8 12 10 13 11 11-7 10-6v21h-61l6 10 6 10h-11c-12 0-40 24-40 34 0 3 13 12 29 21l29 15 7 29 6 29 20-5 19-5 6-25c4-13 4-40 1-59l-6-34 10 5 9 6v109h20v-35l9 13 8 14 6-16 6-15 42 4c51 5 58 11 33 30l-19 15 35-7c19-3 38-11 43-17l7-11 9 14 9 13 7-12 8-12 8 13c5 8 9 20 9 27v13l-10-6-10-6v11c0 9 16 47 25 58 1 1 18-5 38-13 42-17 50-19 42-6l-5 10 17 4c10 3 38 5 61 5l44 1 14 12 14 12 7-7 6-6h-10c-6 0-13-7-17-15l-5-15h30l-6 10-6 10h39l-2-17-1-17 23-12 24-12-14-5-13-5 15-12 15-12-19 6-18 6 6-16 6-16-15 6-16 6 6-11 7-10-12-14-12-15h41l9 17 10 16 16-6 16-6v-20c0-11 5-23 11-27l11-7 9 14 9 14v-13c0-23-21-53-43-62l-22-9h25c14-1 38-8 54-16l28-15h97l3 168c2 92 2 199 0 239l-3 72-17-6-17-7 18 18c19 19 23 31 7 21l-10-6v15c0 8 5 18 11 22l12 7-16 9-16 9-21-13-20-13v-34l18-10 17-10-21-1h-21l-7 31c-3 17-6 84-6 149v117l-77 5c-43 3-84 3-90 1l-13-5-1-42c-1-39-16-105-18-78l-1 13-10-6-10-6-20 11-20 11v32l-33-6-33-5-32-28c-18-16-32-34-32-41 0-6-9-18-20-26l-20-14 7-6 6-7h-28l-14 31-13 31-12-23-11-22-20-3-20-3-11 14-11 14-31 3c-31 2-46 18-18 18h15l-5 25-4 25h50v22l-37-6c-21-3-51-6-67-6h-28l6-25 6-25h-10c-5 0-10 6-10 14s-6 16-14 19l-14 5-11-11c-6-6-11-17-11-24v-13h19c11 0 23-4 26-10l6-10h-30c-17 0-30 3-30 8 3 18-2 32-17 46l-15 16h22l-6 9-5 10 10 6 11 7 15-13 15-12-3 14-3 14 18-3 17-3v19l-34 6c-19 4-45 4-58 1s-37-7-55-9l-32-3-21 14c-11 8-26 13-33 10-14-5-67 23-67 36v9l13-10 12-10 18 13 17 12-15 13-15 12v-32l-20 20-20 20-30-6-30-6v13c0 8-9 25-20 39l-20 25v-26l-17 3-18 3 3-22 3-23h-21v-31l-15-5-15-6v-57l15 5 15 6v-16c0-9-3-15-7-15-5 1-18 1-30 0l-23-1v-10c0-5 8-10 18-11l17-1-13-5-12-5 6-9 5-9-8 1c-4 1-13 1-20 0l-12-1 5-15 6-15 37-1h36l-20-9-20-9H325l20 9c11 5 32 9 48 9l27 1v22l-15-6-15-5-22 9c-13 5-19 9-14 9l9 1-18 20c-10 11-22 20-27 20h-8l17-27 18-27-15 9c-23 14-44 15-52 2l-8-12v35h-30v-22l-25 16-25 16v-25l-9 14-8 13-7-11c-4-6-12-11-18-11h-10l6 15 5 15h-9c-6 0-10 5-10 11v11l13-5 13-5 25 14 24 13-13 1h-12l20 20c22 22 26 40 10 40-5 0-10-7-10-17v-16l-7 6-6 7-14-11-13-11v9c0 13 30 40 60 53l25 10-27-5-28-5v22l-12-9c-7-6-20-13-29-16l-17-6 5 20c3 10 9 19 14 19s9 7 9 16v15l13-6c6-4 3 1-7 9-23 19-46 21-46 5v-11l-14 11-14 11-5-22-6-22 11-13 10-13-16-6-16-6 6-9 5-9-15-6c-8-3-20-3-26 1l-11 7 11 13 11 13-15 5-14 6 2 17c2 10 8 20 14 22l12 4v-26l9 10c5 5 11 20 13 33l3 24-12 4-13 5-6-16zm543-258-5-13-1 19c-1 11 2 17 5 13 3-3 4-12 1-19zm-277-28 11-20h-31v20c0 11 2 20 5 20 2 0 9-9 15-20zm800-9c0-11-26-22-34-14-12 12-5 23 14 23 11 0 20-4 20-9zm-133-17c-3-3-12-4-19-1l-13 5 19 1c11 1 17-2 13-5zm-707-56c0-4-4-8-9-8-6 0-12 4-15 8l-5 9h14c8 0 15-4 15-9zm1115-28 6-10h-32l6 10c3 6 8 10 10 10s7-4 10-10zm415-8c0-13-12-22-22-16l-8 5 5 10c8 11 25 12 25 1zm-229-159 34-8-190-5-190-5-20-9-20-9 13 14 12 13 53 7c76 9 269 10 308 2zm-426-53c-3-5-11-10-16-10h-10l6 10c3 6 11 10 16 10h10l-6-10zm465-26c0-2-9-4-21-4h-20l6 10 6 9 14-6c8-3 15-7 15-9zm-630-44c-25-10-51-19-59-19-8-1-20-9-27-18l-12-18-9 8-8 9 19 14c11 8 28 14 38 14h18v27l43 1 42 1-45-19zm264 7c-6-16-44-40-51-33-6 6 37 45 49 46 4 0 5-6 2-13zm-424-7v-10h-19c-11 0-23 5-26 10l-6 10h51v-10zm360-14c0-3-4-7-9-11l-10-5-6 10-6 10h15c9 0 16-2 16-4zm-30-25c0-4-7-16-16-27l-16-19 6 19 6 19-10 12-11 13 20-5c12-3 21-8 21-12zm-393-13-5-13-1 19c-1 11 2 17 5 13 3-3 4-12 1-19zm513 12c0-5-2-10-4-10-3 0-8 5-11 10l-6 10h10c6 0 11-4 11-10zM570 901c0-5 5-13 10-16l10-6v10c0 5-4 13-10 16l-10 6v-10zm-385-31-6-10h32l-6 10c-3 6-8 10-10 10s-7-4-10-10zm495 0c0-5 5-10 10-10 6 0 10 5 10 10 0 6-4 10-10 10-5 0-10-4-10-10zm1710-31v-10l10 6c6 3 10 8 10 11 0 2-4 4-10 4-5 0-10-5-10-11zM267 808l-5-33 8-8 8-9 7 32 7 32-10 10-10 10-5-34zm773-18-15-10h35v10c0 12-1 12-20 0zm1840-10c0-5 4-10 9-10 6 0 13 5 16 10l6 10h-15c-9 0-16-4-16-10zm40-17v-13l-22-1-23-1 28-10c34-12 43-6 28 19l-10 18-1-12zm-100-18v-14l15 5 15 6-6 9c-8 14-24 10-24-6zm-2556-6-6-11 11-11 11-11v22c0 24-5 28-16 11zm811-9-6-10h15c9 0 16 5 16 10 0 6-4 10-9 10-6 0-13-4-16-10zm145 0-15-10h12c6 0 15 5 18 10 8 12 4 12-15 0zm40 0c0-5 5-10 10-10 6 0 10 5 10 10 0 6-4 10-10 10-5 0-10-4-10-10zm1100 0c0-5 7-10 15-10h15v-34l13 13 12 12-19 15c-23 16-36 18-36 4zm-1098-40v-25l5 13c2 6 2 18 0 25l-5 12v-25zm-47 0-6-10h32l-6 10c-3 6-8 10-10 10s-7-4-10-10zm1065-10c0-5 5-10 10-10 6 0 10 5 10 10 0 6-4 10-10 10-5 0-10-4-10-10zm556 3c-11-11-6-23 9-23 8 0 15 4 15 9 0 13-16 22-24 14zm-26-43c0-5 3-10 8-11 4 0 17-2 30-5l22-4v9c0 5-10 11-22 15-32 8-38 7-38-4zm-1605-30c3-5 8-10 11-10 2 0 4 5 4 10 0 6-5 10-11 10h-10l6-10zm905 0c0-5 5-10 11-10h10l-6 10c-3 6-8 10-11 10-2 0-4-4-4-10zm690-21v-10l10 6c6 3 10 8 10 11 0 2-4 4-10 4-5 0-10-5-10-11zm-950-18c0-5 5-13 10-16l10-6v10c0 5-4 13-10 16l-10 6v-10zm965-31c3-5 8-10 11-10 2 0 4 5 4 10 0 6-5 10-11 10h-10l6-10zm-785-35c0-8 5-15 10-15 6 0 10 7 10 15s-4 15-10 15c-5 0-10-7-10-15zM255 360l-6-10h10c6 0 11 5 11 10 0 6-2 10-4 10-3 0-8-4-11-10zm1142-137c-4-3-7-11-7-17v-10l12 12c6 6 9 14 7 17-3 3-9 2-12-2zm-62-63c-3-4 2-13 10-20l14-12 11 7c16 10 12 22-10 28l-20 5-5-8zm-533-52c2-6 10-14 16-16l12-4v10c0 5-7 13-16 16l-16 6 4-12zm168-7c0-5 5-13 10-16l10-6v10c0 5-4 13-10 16l-10 6v-10zm225-1c3-5 15-10 26-10h20l-6 10c-3 6-15 10-26 10h-20l6-10zm385 0V90h24c14 0 28 5 31 10l6 10h-61v-10zm-162-7c6-2 18-2 25 0l12 5h-50l13-5zm207-33c3-5 11-10 16-10h10l-6 10c-3 6-11 10-16 10h-10l6-10z"/></g><g fill="#28222c" transform="matrix(.1 0 0 -.1 0 300)"><path d="M142 2975v-30l5 18c2 9 2 23 0 30l-5 12v-30zm45 18c-4-3-7-10-7-15v-9l23 5c12 3 16 3 10 0-7-3-13-12-13-19v-14l-17-4-18-4 32 1 33 1v12c0 6 5 15 10 18l11 7 13-11 12-10 17 19c22 26 21 30-3 30h-20v-24l-12 12-12 12h-26c-15 0-30-3-33-7zm126-18c-27-27-29-37-5-28l17 7-14-18-15-18 11-6 12-7-2-20c-1-11-6-23-11-27l-10-7-18 10c-10 5-18 16-18 24s-4 15-10 15c-5 0-10-4-10-9v-9l-17 4c-24 6-39-6-47-36-3-14-3-19 0-12l6 12 10-6 9-6-21-15-22-15-10 10-11 11-7 63-7 63-3-80c-3-118-8-176-14-182-3-4-1-12 5-19l10-12-10-6-10-7 5-14 6-15-16-6-16-6 6-9c3-5 9-7 14-4l9 5-2-19-1-20-8 5-8 5v-41H80c-5 0-10-6-10-14v-14l27-5c24-4 320-3 410 1l32 2 1 250 1 250-103-1-103-1-22-23zm-43-165v-10h-51l6 10c3 6 15 10 26 10h19v-10zm-100-125c0-8-4-15-10-15-5 0-10 7-10 15s5 15 10 15c6 0 10-7 10-15zm-33-57-5-13-1 19c-1 11 2 17 5 13 3-3 4-12 1-19zm333-68c0-5-5-10-11-10h-10l6 10c3 6 8 10 11 10 2 0 4-4 4-10zm2404 245c0-110 2-156 3-103 2 53 2 143 0 200l-3 103v-200zM20 2545v-15h50v9c0 9-24 21-41 21-5 0-9-7-9-15zm536-54-19-7 2-109c1-60 3-110 4-111s11-4 22-6l20-3 4 25c3 24 17 40 36 40h9l-11-11-12-12 27-22 27-23 43 4 42 3v-21l-55 4-55 5v-17l83 1 82 1-20 5c-23 6-35 21-35 46v17h32l-12 15c-7 8-9 15-6 15 4 0 1 7-8 15-16 16-30 20-22 6 4-5 3-16 0-25l-6-16-19 11-20 10 6 22 5 22-11-22c-7-13-16-23-21-23-12 0-10 14 4 28l12 12h-27l7 8c4 4 12 8 17 8 5 1 13 2 19 3l10 1-3 23-2 22 28-3 29-3 5 20c6 24 23 28 23 6 0-8-4-15-9-15s-11-9-14-21l-5-20 11 4c7 2 17 14 23 26s14 22 18 22c3-1 12-1 19-1h12l-14 9-13 9 11 6c6 4 9 11 6 15l-4 8-128 1c-71 0-136-3-147-7zm94-131c0-5-5-10-11-10h-10l6 10c3 6 8 10 11 10 2 0 4-4 4-10zm-70-76c0-8-4-14-10-14h-10v41l10-6c6-3 10-13 10-21zm-85 116-6-10h10c6 0 11 5 11 10 0 6-2 10-4 10-3 0-8-4-11-10zm369-6c3-9 6-18 6-20s9-4 20-4h20v40h-52l6-16zm-74-4c0-5 4-10 9-10 6 0 13 5 16 10l6 10h-15c-9 0-16-4-16-10zm-250-154c0-2 9-6 20-9l20-5 6 9 5 9h-25c-14 0-26-2-26-4zm2080-966c0-5 7-10 15-10s15 5 15 10c0 6-7 10-15 10s-15-4-15-10zm35-58-18-17 7 13 7 12h-89l-4-12-4-11-72-2c-74-3-114-15-51-15l34-1-29-15-29-16 11-7 11-7-8-13-8-13-7 11-7 11-10-6c-5-3-7-9-4-14s1-11-5-15l-10-6 5-10 6-9 20 10 19 11 11-6 10-7-12-14-11-14-9 6-9 5v-10c0-5 6-12 13-15l12-6-22 4-23 4v-40l-15 6-15 5v-9c0-5 5-12 10-15l10-6 12 7c18 11 57 14 63 4l5-8-16-6-15-6 7-11 7-11 8 13 8 13 8-7 7-8-10-17-11-17-39-6c-21-3-33-7-26-8 6 0 12-7 12-14v-14l-25-11c-14-6-25-16-25-22v-10l18 8c9 5 32 16 50 25l33 17-6-10-6-10 15-16 16-15v15c0 8 4 17 9 21l10 5-1-30-1-30h-12c-6 0-16 5-23 12l-12 12v-10c0-6 9-19 21-30l20-18 9 14 9 14 7-6 6-7-15-16c-9-8-20-15-26-15-13 0-41-29-41-42v-10l17 13 17 14-7-18c-4-10-7-21-7-23s-7-4-15-4c-7 0-18-7-23-16l-9-16-49-3c-27-1-49-3-49-5 0-1-10-3-22-6l-23-4v48l13 5 12 5-20 1c-12 1-27 7-34 14l-12 12 6-17 7-18h-10c-14 0-22 36-22 104 0 33-2 57-5 55-2-3-5-61-5-130-1-68-4-134-7-146l-5-23h-14c-17 0-17-5-4-31l11-19h-10c-5 0-13 4-16 10l-6 10-34-3-33-2 9-18 10-17h-11c-5 0-10-7-10-15v-15h-14c-8 0-18 5-21 10-8 13-48 13-62-1l-11-11-11 7-11 6 16 17 17 16-14 5-13 4-4-12c-2-6-8-11-13-11h-10l3 17 3 18-13-3c-7-1-22 2-32 8l-20 11V0h20v52l16-6 17-6 24 16 25 15 34-35 35-36h60l-7 22c-3 12-13 28-20 36l-14 13 10 19c6 11 20 24 31 30l20 11-6 20-6 19h9c6 0 13-6 15-12l5-13 1 18 1 18 10-6c6-3 11-16 11-28l2-22 7 50c5 28 9 73 9 100l1 51 12 12 12 12h-36l5 13 4 12 36-3 37-4v42h9c6 0 16-8 23-18l13-18 107-3 106-3 10 17 9 17 27-17 26-17v35l7-7 7-7-3-194-3-195h432v369l-42 4-43 4 22 7c12 5 24 15 28 23l5 16-15-13-15-13-21 19-21 19-14-20-14-20-20 13c-11 6-23 12-27 12-5 0 0-5 10-11 9-5 17-17 17-24v-15h-65l14 9 15 9-12 14-11 14 6 22 5 22h-40l-5 15-6 14 10 7 10 6-5 14-5 14h14c8 0 15 5 15 10 0 10-13 14-41 11l-16-2-6 20-5 20 25-10c33-12 42-3 17 16l-19 14 29 1h29l-16 18c-23 25-21 45 5 68l21 19-7-12-7-13h23l-7 18c-4 9-13 39-20 65l-12 49 13 5c8 3 21 20 30 39l16 34-17 26-17 26-23-22-22-21-6 20-5 21 9-6 9-5v51l23 1 22 1-17 5c-24 6-23 11 7 35l25 20-5 9-6 9h31v10c0 6-14 17-31 24l-30 13-14 26c-7 14-11 28-7 31 3 3 27 6 54 6h48v20l-47 2c-27 1-64 2-84 3h-36l-15 12-14 12-19-17zm-170-52 6-10h-10c-6 0-11 5-11 10 0 6 2 10 4 10 3 0 8-4 11-10zm215-60c0-5-4-10-10-10-5 0-10 5-10 10 0 6 5 10 10 10 6 0 10-4 10-10zm-91-174-9-10 1 45 1 44 8-35 9-35-10-9zm211-32c0-8-4-14-10-14h-10v41l10-6c6-3 10-13 10-21zm-270-18c0-8-7-16-15-20l-15-5v13c0 7 3 16 7 19 11 12 23 8 23-7zm-320-200c0-2-7-6-15-9l-14-6-6 9-6 10h20c12 0 21-2 21-4zm481-33-10-18-1 16c0 17 10 32 18 25 2-3-1-13-7-23zm-501-13v-20h-20v40h20v-20zm510-20c0-5-4-10-10-10-5 0-10 5-10 10 0 6 5 10 10 10 6 0 10-4 10-10zm-471-87v-28l-8 20c-5 11-7 23-4 28 8 14 13 7 12-20zm-129-23c0-5-4-10-10-10-5 0-10 5-10 10 0 6 5 10 10 10 6 0 10-4 10-10zm0-110c0-5-4-10-10-10-5 0-10 5-10 10 0 6 5 10 10 10 6 0 10-4 10-10zm677-66c-3-3-12-4-19-1l-13 5 19 1c11 1 17-2 13-5zm-22-44-7-12-10 10-10 10 7 12 7 12 10-10 10-10-7-12zm-128-162-4-43v170l4-42c2-24 2-62 0-85zm278 1072c3-5 10-10 16-10 5 0 9 5 9 10 0 6-7 10-16 10h-15l6-10zm35 0v-10h40v20h-40v-10zm-582-27c7-3 16-2 19 1 4 3-2 6-13 5l-19-1 13-5zm-38-24v-10l10 6c6 3 10 8 10 11 0 2-4 4-10 4-5 0-10-5-10-11zm-25-59c3-5 8-10 11-10 2 0 4 5 4 10 0 6-5 10-11 10h-10l6-10zm71-107-7-18 12 12c7 7 10 15 7 18s-9-2-12-12zm439-23c3-5 10-10 16-10 5 0 9 5 9 10 0 6-7 10-16 10h-15l6-10zM570 901c0-5 5-13 10-16l10-6v10c0 5-4 13-10 16l-10 6v-10zm70-9v-13l-17 3-18 3 3-22 3-23h-21v-31l-15-5-15-6v-56l18 2c9 0 20 8 24 16l7 15v-16l1-17 41-4 41-4 28 14 29 14 23-16 22-16h80l-22 16-23 15-12-4c-14-5-67 23-67 36v9l13-10 12-10 18 13 17 12-15 13-15 12v-32l-20 20-20 20-30-6-30-6v13c0 8-9 25-20 39l-20 25v-13zm40-22c0-5 5-10 10-10 6 0 10 5 10 10 0 6-4 10-10 10-5 0-10-4-10-10zm1710-31v-10l10 6c6 3 10 8 10 11 0 2-4 4-10 4-5 0-10-5-10-11zm-2172-6c7-3 16-2 19 1 4 3-2 6-13 5l-19-1 13-5zm49-25-5-33 8-8 8-9 7 32 7 32-10 10-10 10-5-34zm773-18-15-10h35v10c0 12-1 12-20 0zm550-10c8-5 24-10 35-10h20l-15 10c-8 5-24 10-35 10h-20l15-10zm1290 0c0-5 4-10 9-10 6 0 13 5 16 10l6 10h-15c-9 0-16-4-16-10zm-1319-40c-3-45-18-107-20-82l-1 13-10-6-10-6-20 11-20 11v32l-33-6-33-5-32-28c-18-16-32-34-32-41 0-6-9-18-20-26l-20-14 7-6 6-7h-28l-14 31-13 31-12-23-11-22-20-3-20-3-11 14-11 14-31 3c-31 2-46 18-18 18h15l-5 25-4 25h50v22l-37-6c-21-3-51-6-67-6h-28l6-25 6-25h-10c-5 0-10 6-10 14s-6 16-14 19l-14 5-11-11c-6-6-11-17-11-24v-13h19c11 0 23-4 26-10l6-10-33-2c-18 0-44-2-58-4-14-1-100-5-192-9l-167-8-6 14-5 14-133-2-132-3 20 9c11 5 32 10 48 10l27 1v22l-15-6-15-5-22 9c-13 5-19 9-14 9l9 1-18 20c-10 11-22 20-27 20h-8l17-27 18-27-15 9c-23 14-44 15-52 2l-8-12v35h-30v-22l-25 16-25 16v-25l-9 14-9 13-6-11c-4-6-12-11-18-11h-10l6 15 5 15h-19v-17c1-10 6-27 13-38l12-20 59-2 58-2 13-17 12-17 147 6 146 6V145l10 15 10 15V99l-12 7-13 8 13-16c7-9 12-22 11-30-1-7-1-26 0-43l2-30 9 22 9 21-3 104c-1 56 0 111 2 121l5 19 8-13c4-7 17-13 28-14l21-2v9c0 4 4 8 9 8h9l-2-25c0-14-4-25-8-25-5 0-7-3-7-7 1-5 1-14 0-21l-1-13-22 5c-13 3-17 3-10 0 6-3 12-10 12-16v-10l-14 5-13 5-1-31-1-31 9 14 10 15V99l15-6 16-6 14 19 14 19 1-22c0-12 5-25 10-28l10-6v40l20 6 20 6 5 25c3 13 8 36 11 51l5 27 7-11c4-6 16-12 27-15l20-3-3-25-3-25 21-23 21-22-6-20-6-20h25l-9-9c-6-5-28-11-50-13l-40-4 30-8c17-5 33-14 37-20l7-11 28 16 28 16 29-8 30-8 12 10 13 11 11-7 10-6v21h-61l6 10 6 10h-11c-12 0-40 24-40 34 0 3 13 12 29 21l29 15 7 29 6 29 20-5 19-5 6-25c4-13 4-40 1-59l-6-34 10 5 9 6v109h20v-35l9 13 8 14 6-16 6-15 42 4c51 5 58 11 33 30l-19 15 35-7c19-3 38-11 43-17l7-11 9 14 9 13 7-12 8-12 8 13c5 8 9 20 9 27v13l-10-6-10-6v11c0 9 16 47 25 58 1 1 18-5 38-13 42-17 50-19 42-6l-5 10 17 4c10 3 38 5 61 5l44 1 14 12 14 12 7-7 6-6h-11c-7 0-12-4-12-9v-9l18 4c9 3 28 1 42-5l25-10h-24l-23-1 12-15c7-8 20-15 29-15h16l-15-10-15-10 15-11 15-11-19 6-18 6 6-16 6-16-15 6-16 6 6-11 7-10-12-14-12-15h41l9 17 10 16 16-6 16-6v-20c0-11 5-23 12-27l12-8 3 11 4 10 23-4 23-5 6 23 6 23 35-35 36-34V11l10-6 9-6 3 168c2 92 2 200 0 240l-3 72-17-6-17-7 18 18c19 19 23 31 7 21l-10-6v15c0 8 5 18 11 22l12 7-16 9-16 9-21-13-20-13v-34l18-10 17-10-21-1h-21l-7 31c-3 17-7 70-7 118-1 47-4 76-6 63l-5-23-26 2c-15 1-40-1-55-6l-28-7-24 22-24 23-4 41-4 41-2-45zM310 640l11-20h-31v20c0 11 2 20 5 20 2 0 9-9 15-20zm800-9c0-11-26-22-34-14-12 12-5 23 14 23 11 0 20-4 20-9zm275-101 6-10h-32l6 10c3 6 8 10 10 10s7-4 10-10zm415-8c0-13-12-22-22-16l-8 5 5 10c8 11 25 12 25 1zm-229-159 34-8-190-5-190-5-20-9-20-9 13 14 12 13 53 7c76 9 269 10 308 2zm-426-53c-3-5-11-10-16-10h-10l6 10c3 6 11 10 16 10h10l-6-10zm465-26c0-2-9-4-21-4h-20l6 10 6 9 14-6c8-3 15-7 15-9zm-630-44c-25-10-51-19-59-19-8-1-20-9-27-18l-12-18-9 8-8 9 19 14c11 8 28 14 38 14h18v27l43 1 42 1-45-19zm264 7c-6-16-44-40-51-33-6 6 37 45 49 46 4 0 5-6 2-13zm-424-7v-10h-19c-11 0-23 5-26 10l-6 10h51v-10zm360-14c0-3-4-7-9-11l-10-5-6 10-6 10h15c9 0 16-2 16-4zm-30-25c0-4-7-16-16-27l-16-19 6 19 6 19-10 12-11 13 20-5c12-3 21-8 21-12zm-393-13-5-13-1 19c-1 11 2 17 5 13 3-3 4-12 1-19zm513 12c0-5-2-10-4-10-3 0-8 5-11 10l-6 10h10c6 0 11-4 11-10zm446 572c7-4 14-16 17-27l5-20 1 28 1 27h-35l11-8zm1204-9v-13l-22-1-23-1 28-10c34-12 43-6 28 19l-10 18-1-12zm-100-18v-14l15 5 15 6-6 9c-8 14-24 10-24-6zm-2556-6-6-11 11-11 11-11v22c0 24-5 28-16 11zm694 6c-3-3-21-6-41-7l-36-1 5-9c3-4 18-8 35-8h29v-30h31l-6 9-5 10 10 6 11 7 15-13 15-12-3 14-3 14 18-3 17-3v9c0 14-80 29-92 17zm117-15-6-10h15c9 0 16 5 16 10 0 6-4 10-9 10-6 0-13-4-16-10zm145 0-15-10h12c6 0 15 5 18 10 8 12 4 12-15 0zm40 0c0-5 5-10 10-10 6 0 10 5 10 10 0 6-4 10-10 10-5 0-10-4-10-10zm1100 0c0-5 7-10 15-10h15v-34l13 13 12 12-19 15c-23 16-36 18-36 4zm-1807-8c-27-4-31-22-5-23l17-1-13-5-12-5 6-9 5-9-8 1c-4 1-13 1-20 0l-12-1 5-15 6-15h65l-2 40c-1 46-2 47-32 42zm709-32v-25l5 13c2 6 2 18 0 25l-5 12v-25zm-47 0-6-10h32l-6 10c-3 6-8 10-10 10s-7-4-10-10zm1065-10c0-5 5-10 10-10 6 0 10 5 10 10 0 6-4 10-10 10-5 0-10-4-10-10zm556 3c-11-11-6-23 9-23 8 0 15 4 15 9 0 13-16 22-24 14zM960 670c0-5 5-10 10-10 6 0 10 5 10 10 0 6-4 10-10 10-5 0-10-4-10-10zm1850-30c0-5 3-10 8-11 4 0 17-2 30-5l22-4v9c0 5-10 11-22 15-32 8-38 7-38-4zM100 605v-15H86c-8 0-18-5-22-12l-7-11 27-24c31-27 46-29 46-8v15h18l17 1-23 19-22 19 9 5 9 6 37-16 37-15-4 13-5 13-24 3c-13 2-28 8-33 13-6 5-18 9-28 9h-18v-15zm1105 5c3-5 8-10 11-10 2 0 4 5 4 10 0 6-5 10-11 10h-10l6-10zm905 0c0-5 5-10 11-10h10l-6 10c-3 6-8 10-11 10-2 0-4-4-4-10zm690-21v-10l10 6c6 3 10 8 10 11 0 2-4 4-10 4-5 0-10-5-10-11zM273 570c-6-22-18-26-28-9l-7 11-19-21c-10-11-19-23-19-27v-6l16 6 17 6 13-11 14-12-20-17-21-18 11-7 10-6v23l16-6 15-6-6 10c-3 6-3 15 1 21l7 11 8-13 9-14v53c0 53-8 68-17 32zm1577 1c0-5 5-13 10-16l10-6v10c0 5-4 13-10 16l-10 6v-10zm965-31c3-5 8-10 11-10 2 0 4 5 4 10 0 6-5 10-11 10h-10l6-10zm-785-35c0-8 5-15 10-15 6 0 10 7 10 15s-4 15-10 15c-5 0-10-7-10-15zM255 360l-6-10h10c6 0 11 5 11 10 0 6-2 10-4 10-3 0-8-4-11-10zm2274-89c6-11 16-23 21-26l10-6v13c0 7-9 19-21 26l-20 13 10-20zm-351-46c-7-25-3-213 5-221s13 176 6 212l-5 29-6-20zm-781-2c-4-3-7-11-7-17v-10l12 12c6 6 9 14 7 17-3 3-9 2-12-2zm-62-63c-3-4 2-13 10-20l14-12 11 7c16 10 12 22-10 28l-20 5-5-8zm-533-52c2-6 10-14 16-16l12-4v10c0 5-7 13-16 16l-16 6 4-12zm168-7c0-5 5-13 10-16l10-6v10c0 5-4 13-10 16l-10 6v-10zm225-1c3-5 15-10 26-10h20l-6 10c-3 6-15 10-26 10h-20l6-10zm385 0V90h24c14 0 28 5 31 10l6 10h-61v-10zm-162-7c6-2 18-2 25 0l12 5h-50l13-5zm207-33c3-5 11-10 16-10h10l-6 10c-3 6-11 10-16 10h-10l6-10zm25-17-25-13h22c12 0 30-3 40-6l18-6-11 9c-6 4-13 13-15 19l-4 10-25-13z"/></g></g></svg>